Amstelvar-Roman-YOPQ-max.ufo
<glyph name="dollar" format="2">
  <advance width="1107"/>
  <unicode hex="0024"/>
  <outline>
    <contour>
      <point x="56" y="273" type="qcurve"/>
      <point x="207" y="366" type="line"/>
      <point x="242.0" y="321.0"/>
      <point x="432" y="228.0"/>
      <point x="585" y="228.0" type="qcurve" smooth="yes"/>
      <point x="745" y="228"/>
      <point x="890" y="324"/>
      <point x="890" y="411" type="qcurve" smooth="yes"/>
      <point x="890" y="507"/>
      <point x="707" y="665"/>
      <point x="526" y="719" type="qcurve" smooth="yes"/>
      <point x="327" y="778"/>
      <point x="121" y="947"/>
      <point x="121" y="1127" type="qcurve" smooth="yes"/>
      <point x="121" y="1314"/>
      <point x="353" y="1501"/>
      <point x="555" y="1501" type="qcurve" smooth="yes"/>
      <point x="703" y="1501"/>
      <point x="939" y="1418"/>
      <point x="1015" y="1338" type="qcurve"/>
      <point x="897" y="1186" type="line"/>
      <point x="859" y="1213"/>
      <point x="703" y="1265"/>
      <point x="559" y="1265" type="qcurve" smooth="yes"/>
      <point x="403" y="1265"/>
      <point x="281" y="1161"/>
      <point x="281" y="1100" type="qcurve" smooth="yes"/>
      <point x="281.0" y="1039"/>
      <point x="411" y="946"/>
      <point x="618" y="873" type="qcurve" smooth="yes"/>
      <point x="829" y="799"/>
      <point x="1050" y="607"/>
      <point x="1051" y="430" type="qcurve"/>
      <point x="1050" y="245"/>
      <point x="790" y="1"/>
      <point x="581" y="1" type="qcurve" smooth="yes"/>
      <point x="382" y="1"/>
      <point x="138" y="141"/>
    </contour>
    <contour>
      <point x="441" y="-193" type="line"/>
      <point x="441" y="164" type="line"/>
      <point x="481" y="164" type="line"/>
      <point x="481" y="863" type="line"/>
      <point x="665" y="824" type="line"/>
      <point x="665" y="164" type="line"/>
      <point x="707" y="164" type="line"/>
      <point x="707" y="-161" type="line"/>
    </contour>
    <contour>
      <point x="441" y="1587" type="line"/>
      <point x="707" y="1627" type="line"/>
      <point x="707" y="1309" type="line"/>
      <point x="665" y="1309" type="line"/>
      <point x="665" y="727" type="line"/>
      <point x="481" y="766" type="line"/>
      <point x="481" y="1309" type="line"/>
      <point x="441" y="1309" type="line"/>
    </contour>
  </outline>
</glyph>
<glyph name="ampersand" format="2">
  <advance width="1575"/>
  <unicode hex="0026"/>
  <outline>
    <contour>
      <point x="538" y="-28" type="qcurve" smooth="yes"/>
      <point x="278" y="-27"/>
      <point x="67" y="208"/>
      <point x="62" y="354" type="qcurve"/>
      <point x="62" y="528"/>
      <point x="214" y="754"/>
      <point x="467" y="890" type="qcurve" smooth="yes"/>
      <point x="630" y="977"/>
      <point x="732" y="1079"/>
      <point x="732.0" y="1151.0" type="qcurve" smooth="yes"/>
      <point x="732.0" y="1201"/>
      <point x="665" y="1281"/>
      <point x="566" y="1281" type="qcurve" smooth="yes"/>
      <point x="468" y="1281"/>
      <point x="370.0" y="1191"/>
      <point x="370.0" y="1142.0" type="qcurve" smooth="yes"/>
      <point x="370" y="1100"/>
      <point x="420" y="1014"/>
      <point x="469" y="974" type="qcurve" smooth="yes"/>
      <point x="544" y="913"/>
      <point x="796" y="770"/>
      <point x="875" y="689" type="qcurve" smooth="yes"/>
      <point x="949" y="612"/>
      <point x="1077" y="364"/>
      <point x="1138" y="270" type="qcurve" smooth="yes"/>
      <point x="1179.0" y="207.0"/>
      <point x="1253.0" y="161.0"/>
      <point x="1294" y="161.0" type="qcurve" smooth="yes"/>
      <point x="1360" y="161"/>
      <point x="1467" y="278"/>
      <point x="1499" y="334" type="qcurve"/>
      <point x="1657" y="192" type="line"/>
      <point x="1618" y="130"/>
      <point x="1460" y="-19"/>
      <point x="1335" y="-34" type="qcurve" smooth="yes"/>
      <point x="1231" y="-46"/>
      <point x="1107" y="36"/>
      <point x="1054" y="92" type="qcurve" smooth="yes"/>
      <point x="1005" y="144"/>
      <point x="815" y="485"/>
      <point x="744" y="557" type="qcurve" smooth="yes"/>
      <point x="671" y="630"/>
      <point x="401" y="801"/>
      <point x="338" y="859" type="qcurve" smooth="yes"/>
      <point x="271" y="924"/>
      <point x="200" y="1051"/>
      <point x="205" y="1175" type="qcurve" smooth="yes"/>
      <point x="211" y="1324"/>
      <point x="454" y="1517"/>
      <point x="626" y="1516" type="qcurve" smooth="yes"/>
      <point x="781" y="1515"/>
      <point x="995" y="1327"/>
      <point x="995" y="1198" type="qcurve" smooth="yes"/>
      <point x="995" y="1066"/>
      <point x="823" y="819"/>
      <point x="641" y="721" type="qcurve" smooth="yes"/>
      <point x="432.0" y="609"/>
      <point x="267.0" y="456.0"/>
      <point x="261" y="361" type="qcurve" smooth="yes"/>
      <point x="255" y="255"/>
      <point x="434" y="127"/>
      <point x="533" y="126" type="qcurve" smooth="yes"/>
      <point x="813" y="125"/>
      <point x="1134" y="461"/>
      <point x="1265" y="706" type="qcurve"/>
      <point x="1462" y="560" type="line"/>
      <point x="1372" y="325"/>
      <point x="797" y="-29"/>
    </contour>
  </outline>
</glyph>
<glyph name="plus" format="2">
  <advance width="1024"/>
  <unicode hex="002B"/>
  <outline>
    <contour>
      <point x="80" y="486" type="line"/>
      <point x="80" y="778" type="line"/>
      <point x="944" y="778" type="line"/>
      <point x="944" y="486" type="line"/>
    </contour>
    <contour>
      <point x="432" y="130" type="line"/>
      <point x="432" y="1134" type="line"/>
      <point x="592" y="1134" type="line"/>
      <point x="592" y="130" type="line"/>
    </contour>
  </outline>
</glyph>
<glyph name="hyphen" format="2">
  <advance width="739"/>
  <unicode hex="002D"/>
  <outline>
    <contour>
      <point x="80" y="476" type="line"/>
      <point x="80" y="788" type="line"/>
      <point x="370" y="784" type="line"/>
      <point x="659" y="788" type="line"/>
      <point x="659" y="476" type="line"/>
      <point x="370" y="480" type="line"/>
    </contour>
  </outline>
</glyph>
<glyph name="slash" format="2">
  <advance width="1020"/>
  <unicode hex="002F"/>
  <outline>
    <contour>
      <point x="-62" y="-76" type="line"/>
      <point x="545" y="1553" type="line"/>
      <point x="1059" y="1401" type="line"/>
      <point x="452" y="-228" type="line"/>
    </contour>
  </outline>
</glyph>
<glyph name="zero" format="2">
  <advance width="1176"/>
  <unicode hex="0030"/>
  <outline>
    <contour>
      <point x="74.0" y="746" type="qcurve" smooth="yes"/>
      <point x="74.0" y="1103"/>
      <point x="378.0" y="1519"/>
      <point x="589.0" y="1519" type="qcurve" smooth="yes"/>
      <point x="805.0" y="1519"/>
      <point x="1102.0" y="1108"/>
      <point x="1102.0" y="754" type="qcurve" smooth="yes"/>
      <point x="1102.0" y="419"/>
      <point x="811.0" y="-20"/>
      <point x="594.0" y="-20" type="qcurve" smooth="yes"/>
      <point x="375.0" y="-20"/>
      <point x="74.0" y="388"/>
    </contour>
    <contour>
      <point x="259.0" y="805" type="qcurve" smooth="yes"/>
      <point x="260.0" y="536"/>
      <point x="431.0" y="193"/>
      <point x="587.0" y="193" type="qcurve" smooth="yes"/>
      <point x="755.0" y="193"/>
      <point x="915.0" y="504"/>
      <point x="917.0" y="781" type="qcurve" smooth="yes"/>
      <point x="918.0" y="972"/>
      <point x="749.0" y="1290"/>
      <point x="590.0" y="1290" type="qcurve" smooth="yes"/>
      <point x="419.0" y="1290"/>
      <point x="258.0" y="1002"/>
    </contour>
  </outline>
</glyph>
<glyph name="seven" format="2">
  <advance width="965"/>
  <unicode hex="0037"/>
  <outline>
    <contour>
      <point x="24" y="1098" type="line"/>
      <point x="46" y="1500" type="line"/>
      <point x="985" y="1500" type="line"/>
      <point x="985" y="1309" type="line"/>
      <point x="677.0" y="620.0" type="line"/>
      <point x="411" y="-53" type="line"/>
      <point x="147" y="-53" type="line"/>
      <point x="147" y="20" type="line"/>
      <point x="455.0" y="707.0" type="line"/>
      <point x="726" y="1306" type="line"/>
      <point x="692" y="1332" type="line"/>
      <point x="282.0" y="1332.0" type="line"/>
      <point x="246.0" y="1098.0" type="line"/>
    </contour>
  </outline>
</glyph>
<glyph name="equal" format="2">
  <advance width="1024"/>
  <unicode hex="003D"/>
  <outline>
    <contour>
      <point x="110" y="264" type="line"/>
      <point x="110" y="576" type="line"/>
      <point x="510" y="572" type="line"/>
      <point x="914" y="576" type="line"/>
      <point x="914" y="264" type="line"/>
      <point x="510" y="268" type="line"/>
    </contour>
    <contour>
      <point x="110" y="666" type="line"/>
      <point x="110" y="978" type="line"/>
      <point x="510" y="974" type="line"/>
      <point x="914" y="978" type="line"/>
      <point x="914" y="666" type="line"/>
      <point x="510" y="670" type="line"/>
    </contour>
  </outline>
</glyph>
<glyph name="question" format="2">
  <advance width="934"/>
  <unicode hex="003F"/>
  <outline>
    <contour>
      <point x="231" y="121" type="qcurve" smooth="yes"/>
      <point x="231" y="179"/>
      <point x="312" y="265"/>
      <point x="375" y="265" type="qcurve" smooth="yes"/>
      <point x="438" y="265"/>
      <point x="519" y="179"/>
      <point x="519" y="121" type="qcurve" smooth="yes"/>
      <point x="519" y="64"/>
      <point x="438" y="-22"/>
      <point x="375" y="-22" type="qcurve" smooth="yes"/>
      <point x="312" y="-22"/>
      <point x="231" y="64"/>
    </contour>
    <contour>
      <point x="33" y="1234" type="qcurve" smooth="yes"/>
      <point x="33" y="1377"/>
      <point x="266" y="1540"/>
      <point x="470" y="1540" type="qcurve" smooth="yes"/>
      <point x="667" y="1540"/>
      <point x="914" y="1348"/>
      <point x="914" y="1163" type="qcurve" smooth="yes"/>
      <point x="914.0" y="1004.0"/>
      <point x="762" y="814"/>
      <point x="633" y="756" type="qcurve" smooth="yes"/>
      <point x="520" y="705"/>
      <point x="469" y="579"/>
      <point x="477" y="490" type="qcurve" smooth="yes"/>
      <point x="482" y="435" type="line"/>
      <point x="242" y="435" type="line"/>
      <point x="238" y="460" type="line" smooth="yes"/>
      <point x="220" y="574"/>
      <point x="383" y="756"/>
      <point x="495" y="820" type="qcurve" smooth="yes"/>
      <point x="625" y="895"/>
      <point x="726" y="1029"/>
      <point x="726.0" y="1123" type="qcurve" smooth="yes"/>
      <point x="726.0" y="1219.0"/>
      <point x="582.0" y="1327.0"/>
      <point x="435" y="1327" type="qcurve" smooth="yes"/>
      <point x="313" y="1327"/>
      <point x="177" y="1310"/>
      <point x="177" y="1289" type="qcurve" smooth="yes"/>
      <point x="177" y="1264"/>
      <point x="298" y="1204"/>
      <point x="300" y="1155" type="qcurve" smooth="yes"/>
      <point x="303" y="1115"/>
      <point x="242" y="1051"/>
      <point x="182" y="1051" type="qcurve" smooth="yes"/>
      <point x="116" y="1051"/>
      <point x="33" y="1144"/>
    </contour>
  </outline>
</glyph>
<glyph name="at" format="2">
  <advance width="1709"/>
  <unicode hex="0040"/>
  <outline>
    <contour>
      <point x="80" y="725" type="qcurve" smooth="yes"/>
      <point x="80" y="1058"/>
      <point x="510" y="1520"/>
      <point x="874" y="1520" type="qcurve" smooth="yes"/>
      <point x="1214" y="1520"/>
      <point x="1652" y="1172"/>
      <point x="1652" y="863" type="qcurve" smooth="yes"/>
      <point x="1652" y="630"/>
      <point x="1405" y="349"/>
      <point x="1262" y="349" type="qcurve" smooth="yes"/>
      <point x="1187" y="349"/>
      <point x="1071" y="400"/>
      <point x="1050" y="461" type="qcurve"/>
      <point x="1004" y="400"/>
      <point x="827" y="317"/>
      <point x="734" y="317" type="qcurve" smooth="yes"/>
      <point x="624" y="317"/>
      <point x="488" y="452"/>
      <point x="488.0" y="585" type="qcurve" smooth="yes"/>
      <point x="488" y="722"/>
      <point x="774" y="902"/>
      <point x="1055" y="936" type="qcurve"/>
      <point x="1062.0" y="720" type="line"/>
      <point x="874.0" y="708"/>
      <point x="653.0" y="660"/>
      <point x="653.0" y="606" type="qcurve" smooth="yes"/>
      <point x="653.0" y="577"/>
      <point x="742.0" y="543"/>
      <point x="799.0" y="543" type="qcurve" smooth="yes"/>
      <point x="865.0" y="543"/>
      <point x="1003.0" y="583"/>
      <point x="1032.0" y="604" type="qcurve"/>
      <point x="1035" y="863" type="line" smooth="yes"/>
      <point x="1036" y="910"/>
      <point x="936" y="1012"/>
      <point x="848" y="1012.0" type="qcurve" smooth="yes"/>
      <point x="797" y="1012"/>
      <point x="755" y="1009"/>
      <point x="734" y="1006" type="qcurve" smooth="yes"/>
      <point x="710" y="1003"/>
      <point x="708" y="987"/>
      <point x="710" y="970" type="qcurve" smooth="yes"/>
      <point x="717" y="934"/>
      <point x="676" y="885"/>
      <point x="637" y="885" type="qcurve" smooth="yes"/>
      <point x="597" y="885"/>
      <point x="548" y="954"/>
      <point x="548" y="1012" type="qcurve" smooth="yes"/>
      <point x="548" y="1094"/>
      <point x="748" y="1213"/>
      <point x="871" y="1213" type="qcurve" smooth="yes"/>
      <point x="1019" y="1213"/>
      <point x="1182" y="1042"/>
      <point x="1185" y="854" type="qcurve" smooth="yes"/>
      <point x="1190" y="585" type="line" smooth="yes"/>
      <point x="1190" y="569"/>
      <point x="1274" y="560.0"/>
      <point x="1289" y="560.0" type="qcurve" smooth="yes"/>
      <point x="1393" y="560.0"/>
      <point x="1506" y="679.0"/>
      <point x="1506" y="839.0" type="qcurve" smooth="yes"/>
      <point x="1506" y="1026.0"/>
      <point x="1182" y="1278.0"/>
      <point x="876" y="1278.0" type="qcurve" smooth="yes"/>
      <point x="560" y="1278.0"/>
      <point x="228" y="985.0"/>
      <point x="230" y="738.0" type="qcurve" smooth="yes"/>
      <point x="231" y="516.0"/>
      <point x="634" y="205"/>
      <point x="873" y="205" type="qcurve" smooth="yes"/>
      <point x="990" y="205"/>
      <point x="1138" y="259"/>
      <point x="1176" y="285" type="qcurve"/>
      <point x="1303" y="108" type="line"/>
      <point x="1244" y="57"/>
      <point x="1024" y="-30"/>
      <point x="869" y="-30" type="qcurve" smooth="yes"/>
      <point x="531" y="-30"/>
      <point x="80" y="399"/>
    </contour>
  </outline>
</glyph>
<glyph name="B" format="2">
  <advance width="1269"/>
  <unicode hex="0042"/>
  <outline>
    <contour>
      <point x="82" y="0" type="line"/>
      <point x="82" y="196" type="line"/>
      <point x="290" y="229" type="line"/>
      <point x="292" y="779" type="line"/>
      <point x="290" y="1259" type="line"/>
      <point x="82" y="1291" type="line"/>
      <point x="82" y="1500" type="line"/>
      <point x="686" y="1500" type="line" smooth="yes"/>
      <point x="880" y="1500"/>
      <point x="1102.0" y="1319"/>
      <point x="1102.0" y="1173" type="qcurve" smooth="yes"/>
      <point x="1102" y="1035"/>
      <point x="975" y="854"/>
      <point x="862" y="830" type="qcurve"/>
      <point x="862" y="823" type="line"/>
      <point x="999" y="795"/>
      <point x="1194" y="603"/>
      <point x="1195" y="434" type="qcurve"/>
      <point x="1194" y="244"/>
      <point x="914" y="0"/>
      <point x="702" y="0" type="qcurve" smooth="yes"/>
    </contour>
    <contour>
      <point x="470" y="221" type="line"/>
      <point x="480" y="215" type="line"/>
      <point x="646" y="215" type="line" smooth="yes"/>
      <point x="850" y="215"/>
      <point x="1008" y="344"/>
      <point x="1008" y="462" type="qcurve" smooth="yes"/>
      <point x="1008" y="558"/>
      <point x="872" y="685"/>
      <point x="712" y="685" type="qcurve" smooth="yes"/>
      <point x="468" y="685" type="line"/>
      <point x="470" y="690" type="line"/>
    </contour>
    <contour>
      <point x="470" y="893" type="line"/>
      <point x="466" y="899" type="line"/>
      <point x="634" y="899" type="line" smooth="yes"/>
      <point x="794" y="899"/>
      <point x="922" y="1012"/>
      <point x="922" y="1102" type="qcurve" smooth="yes"/>
      <point x="922" y="1179"/>
      <point x="800" y="1271"/>
      <point x="644" y="1271" type="qcurve" smooth="yes"/>
      <point x="480" y="1271" type="line"/>
      <point x="472" y="1267" type="line"/>
    </contour>
  </outline>
</glyph>
<glyph name="C" format="2">
  <advance width="1446"/>
  <unicode hex="0043"/>
  <outline>
    <contour>
      <point x="80.0" y="704" type="qcurve" smooth="yes"/>
      <point x="80" y="1043"/>
      <point x="487" y="1519"/>
      <point x="826" y="1519.0" type="qcurve" smooth="yes"/>
      <point x="928" y="1519.0"/>
      <point x="1073.0" y="1466"/>
      <point x="1113.0" y="1438" type="qcurve"/>
      <point x="1130.0" y="1488" type="line"/>
      <point x="1341.0" y="1488" type="line"/>
      <point x="1341.0" y="957" type="line"/>
      <point x="1132.0" y="957" type="line"/>
      <point x="1090.0" y="1131" type="line" smooth="yes"/>
      <point x="1070" y="1214"/>
      <point x="953" y="1292"/>
      <point x="822" y="1292.0" type="qcurve" smooth="yes"/>
      <point x="587.0" y="1292.0"/>
      <point x="269" y="987"/>
      <point x="271" y="736" type="qcurve" smooth="yes"/>
      <point x="273" y="480"/>
      <point x="594" y="214"/>
      <point x="858" y="214.0" type="qcurve" smooth="yes"/>
      <point x="1038" y="214.0"/>
      <point x="1259.0" y="308.0"/>
      <point x="1307.0" y="362" type="qcurve"/>
      <point x="1438.0" y="245" type="line"/>
      <point x="1336.0" y="109"/>
      <point x="1026" y="-30"/>
      <point x="852.0" y="-30" type="qcurve" smooth="yes"/>
      <point x="493" y="-30"/>
      <point x="80.0" y="364"/>
    </contour>
  </outline>
</glyph>
<glyph name="F" format="2">
  <advance width="1126"/>
  <unicode hex="0046"/>
  <outline>
    <contour>
      <point x="82.0" y="0" type="line"/>
      <point x="82.0" y="196" type="line"/>
      <point x="290.0" y="230" type="line"/>
      <point x="292.0" y="758" type="line"/>
      <point x="290.0" y="1259" type="line"/>
      <point x="82.0" y="1291" type="line"/>
      <point x="82.0" y="1500" type="line"/>
      <point x="1106.0" y="1500" type="line"/>
      <point x="1106.0" y="1060" type="line"/>
      <point x="899.0" y="1060" type="line"/>
      <point x="864.0" y="1282" type="line"/>
      <point x="478.0" y="1282" type="line"/>
      <point x="470.0" y="1277" type="line"/>
      <point x="468.0" y="759" type="line"/>
      <point x="470.0" y="226" type="line"/>
      <point x="698.0" y="197" type="line"/>
      <point x="698.0" y="0" type="line"/>
    </contour>
    <contour>
      <point x="380.0" y="648" type="line"/>
      <point x="380.0" y="850" type="line"/>
      <point x="719.0" y="857" type="line"/>
      <point x="754.0" y="1015" type="line"/>
      <point x="960.0" y="1015" type="line"/>
      <point x="960.0" y="474" type="line"/>
      <point x="754.0" y="474" type="line"/>
      <point x="719.0" y="642" type="line"/>
    </contour>
  </outline>
</glyph>
<glyph name="H" format="2">
  <advance width="1740"/>
  <unicode hex="0048"/>
  <outline>
    <contour>
      <point x="82" y="0" type="line"/>
      <point x="82" y="196" type="line"/>
      <point x="290" y="228" type="line"/>
      <point x="292" y="753" type="line"/>
      <point x="290" y="1259" type="line"/>
      <point x="82" y="1291" type="line"/>
      <point x="82" y="1500" type="line"/>
      <point x="678" y="1500" type="line"/>
      <point x="678" y="1291" type="line"/>
      <point x="470" y="1259" type="line"/>
      <point x="468" y="753" type="line"/>
      <point x="470" y="228" type="line"/>
      <point x="678" y="196" type="line"/>
      <point x="678" y="0" type="line"/>
    </contour>
    <contour>
      <point x="380" y="666" type="line"/>
      <point x="380" y="898" type="line"/>
      <point x="870" y="880" type="line"/>
      <point x="1359" y="898" type="line"/>
      <point x="1359" y="666" type="line"/>
      <point x="870" y="676" type="line"/>
    </contour>
    <contour>
      <point x="1062" y="0" type="line"/>
      <point x="1062" y="196" type="line"/>
      <point x="1270" y="228" type="line"/>
      <point x="1272" y="753" type="line"/>
      <point x="1270" y="1259" type="line"/>
      <point x="1062" y="1291" type="line"/>
      <point x="1062" y="1500" type="line"/>
      <point x="1658" y="1500" type="line"/>
      <point x="1658" y="1291" type="line"/>
      <point x="1450" y="1259" type="line"/>
      <point x="1448" y="753" type="line"/>
      <point x="1450" y="228" type="line"/>
      <point x="1658" y="196" type="line"/>
      <point x="1658" y="0" type="line"/>
    </contour>
  </outline>
</glyph>
<glyph name="K" format="2">
  <advance width="1440"/>
  <unicode hex="004B"/>
  <outline>
    <contour>
      <point x="82.0" y="0" type="line"/>
      <point x="82.0" y="196" type="line"/>
      <point x="290.0" y="228" type="line"/>
      <point x="292.0" y="753" type="line"/>
      <point x="290.0" y="1259" type="line"/>
      <point x="82.0" y="1291" type="line"/>
      <point x="82.0" y="1500" type="line"/>
      <point x="668.0" y="1500" type="line"/>
      <point x="668.0" y="1291" type="line"/>
      <point x="470.0" y="1260" type="line"/>
      <point x="468.0" y="753" type="line"/>
      <point x="470.0" y="228" type="line"/>
      <point x="678.0" y="196" type="line"/>
      <point x="678.0" y="0" type="line"/>
    </contour>
    <contour>
      <point x="380.0" y="419" type="line"/>
      <point x="380.0" y="696" type="line"/>
      <point x="927.0" y="1269" type="line"/>
      <point x="844.0" y="1295" type="line"/>
      <point x="844.0" y="1500" type="line"/>
      <point x="1370.0" y="1500" type="line"/>
      <point x="1370.0" y="1294" type="line"/>
      <point x="1180.0" y="1246" type="line"/>
      <point x="778.0" y="814" type="line"/>
      <point x="739.0" y="777" type="line"/>
    </contour>
    <contour>
      <point x="652.0" y="825" type="line"/>
      <point x="769.0" y="942" type="line"/>
      <point x="1289.0" y="229" type="line"/>
      <point x="1476.0" y="195" type="line"/>
      <point x="1476.0" y="0" type="line"/>
      <point x="943.0" y="0" type="line"/>
      <point x="943.0" y="195" type="line"/>
      <point x="1094.0" y="216" type="line"/>
    </contour>
  </outline>
</glyph>
<glyph name="M" format="2">
  <advance width="2176"/>
  <unicode hex="004D"/>
  <outline>
    <contour>
      <point x="82" y="0" type="line"/>
      <point x="82" y="196" type="line"/>
      <point x="290" y="228" type="line"/>
      <point x="292" y="753" type="line"/>
      <point x="290" y="1259" type="line"/>
      <point x="82" y="1291" type="line"/>
      <point x="82" y="1500" type="line"/>
      <point x="603" y="1500" type="line"/>
      <point x="881" y="809" type="line"/>
      <point x="1078" y="327" type="line"/>
      <point x="1284" y="837" type="line"/>
      <point x="1555" y="1500" type="line"/>
      <point x="2094" y="1500" type="line"/>
      <point x="2094" y="1291" type="line"/>
      <point x="1886" y="1259" type="line"/>
      <point x="1884" y="753" type="line"/>
      <point x="1886" y="228" type="line"/>
      <point x="2094" y="196" type="line"/>
      <point x="2094" y="0" type="line"/>
      <point x="1468" y="0" type="line"/>
      <point x="1468" y="196" type="line"/>
      <point x="1706" y="229" type="line"/>
      <point x="1708" y="752" type="line"/>
      <point x="1706" y="1252" type="line"/>
      <point x="1482" y="710" type="line"/>
      <point x="1187" y="-7" type="line"/>
      <point x="1024" y="-7" type="line"/>
      <point x="727" y="743" type="line"/>
      <point x="504" y="1257" type="line"/>
      <point x="506" y="753" type="line"/>
      <point x="508" y="229" type="line"/>
      <point x="726" y="196" type="line"/>
      <point x="726" y="0" type="line"/>
    </contour>
  </outline>
</glyph>
<glyph name="N" format="2">
  <advance width="1610"/>
  <unicode hex="004E"/>
  <outline>
    <contour>
      <point x="137.0" y="0" type="line"/>
      <point x="137.0" y="196" type="line"/>
      <point x="345.0" y="228" type="line"/>
      <point x="347.0" y="753" type="line"/>
      <point x="345.0" y="1259" type="line"/>
      <point x="137.0" y="1291" type="line"/>
      <point x="137.0" y="1500" type="line"/>
      <point x="552.0" y="1500" type="line"/>
      <point x="943.0" y="871" type="line"/>
      <point x="1265.0" y="380" type="line"/>
      <point x="1267.0" y="759" type="line"/>
      <point x="1265.0" y="1259" type="line"/>
      <point x="1037.0" y="1291" type="line"/>
      <point x="1037.0" y="1500" type="line"/>
      <point x="1593.0" y="1500" type="line"/>
      <point x="1593.0" y="1291" type="line"/>
      <point x="1385.0" y="1259" type="line"/>
      <point x="1383.0" y="719" type="line"/>
      <point x="1379.0" y="0" type="line"/>
      <point x="1269.0" y="0" type="line"/>
      <point x="809.0" y="708" type="line"/>
      <point x="465.0" y="1242" type="line"/>
      <point x="463.0" y="752" type="line"/>
      <point x="465.0" y="229" type="line"/>
      <point x="683.0" y="196" type="line"/>
      <point x="683.0" y="0" type="line"/>
    </contour>
  </outline>
</glyph>
<glyph name="O" format="2">
  <advance width="1664"/>
  <unicode hex="004F"/>
  <outline>
    <contour>
      <point x="80.0" y="738" type="qcurve" smooth="yes"/>
      <point x="80.0" y="1083"/>
      <point x="511.0" y="1520"/>
      <point x="832.0" y="1520" type="qcurve" smooth="yes"/>
      <point x="1152.0" y="1520"/>
      <point x="1584.0" y="1110"/>
      <point x="1584.0" y="752" type="qcurve" smooth="yes"/>
      <point x="1584.0" y="409"/>
      <point x="1157.0" y="-31"/>
      <point x="836.0" y="-31" type="qcurve" smooth="yes"/>
      <point x="524.0" y="-31"/>
      <point x="80.0" y="383"/>
    </contour>
    <contour>
      <point x="271.0" y="769" type="qcurve" smooth="yes"/>
      <point x="271.0" y="535"/>
      <point x="569.0" y="202"/>
      <point x="834.0" y="202" type="qcurve" smooth="yes"/>
      <point x="1122.0" y="202"/>
      <point x="1393.0" y="496"/>
      <point x="1393.0" y="745" type="qcurve" smooth="yes"/>
      <point x="1393.0" y="963"/>
      <point x="1102.0" y="1281"/>
      <point x="834.0" y="1281" type="qcurve" smooth="yes"/>
      <point x="545.0" y="1281"/>
      <point x="271.0" y="994"/>
    </contour>
  </outline>
</glyph>
<glyph name="X" format="2">
  <advance width="1342"/>
  <unicode hex="0058"/>
  <outline>
    <contour>
      <point x="-20" y="0" type="line"/>
      <point x="-20" y="195" type="line"/>
      <point x="157" y="229" type="line"/>
      <point x="585" y="885" type="line"/>
      <point x="607" y="885" type="line"/>
      <point x="857" y="1274" type="line"/>
      <point x="724" y="1291" type="line"/>
      <point x="724" y="1500" type="line"/>
      <point x="1286" y="1500" type="line"/>
      <point x="1286" y="1291" type="line"/>
      <point x="1098" y="1261" type="line"/>
      <point x="745" y="717" type="line"/>
      <point x="724" y="717" type="line"/>
      <point x="400" y="215" type="line"/>
      <point x="534" y="196" type="line"/>
      <point x="534" y="0" type="line"/>
    </contour>
    <contour>
      <point x="40" y="1292" type="line"/>
      <point x="40" y="1500" type="line"/>
      <point x="588" y="1500" type="line"/>
      <point x="588" y="1292" type="line"/>
      <point x="446" y="1271" type="line"/>
      <point x="724" y="860" type="line"/>
      <point x="1154" y="229" type="line"/>
      <point x="1382" y="195" type="line"/>
      <point x="1382" y="0" type="line"/>
      <point x="792" y="0" type="line"/>
      <point x="792" y="195" type="line"/>
      <point x="961" y="217" type="line"/>
      <point x="605" y="741" type="line"/>
      <point x="252" y="1261" type="line"/>
    </contour>
  </outline>
</glyph>
<glyph name="bracketleft" format="2">
  <advance width="636"/>
  <unicode hex="005B"/>
  <outline>
    <contour>
      <point x="145" y="508" type="line"/>
      <point x="133" y="1282" type="line"/>
      <point x="114" y="1302" type="line"/>
      <point x="114" y="1500" type="line"/>
      <point x="572" y="1500" type="line"/>
      <point x="572" y="1301" type="line"/>
      <point x="313" y="1282" type="line"/>
      <point x="301" y="508" type="line"/>
      <point x="313" y="-262" type="line"/>
      <point x="572" y="-281" type="line"/>
      <point x="572" y="-480" type="line"/>
      <point x="114" y="-480" type="line"/>
      <point x="114" y="-282" type="line"/>
      <point x="133" y="-262" type="line"/>
    </contour>
  </outline>
</glyph>
<glyph name="a" format="2">
  <advance width="1032"/>
  <unicode hex="0061"/>
  <outline>
    <contour>
      <point x="38.0" y="272" type="qcurve" smooth="yes"/>
      <point x="38.0" y="433"/>
      <point x="387.0" y="621"/>
      <point x="691.0" y="654" type="qcurve"/>
      <point x="711.0" y="493" type="line"/>
      <point x="464.0" y="463"/>
      <point x="218.0" y="362"/>
      <point x="218.0" y="280" type="qcurve" smooth="yes"/>
      <point x="218.0" y="249"/>
      <point x="303.0" y="186"/>
      <point x="387.0" y="186" type="qcurve" smooth="yes"/>
      <point x="485.0" y="186"/>
      <point x="639.0" y="268"/>
      <point x="668.0" y="308" type="qcurve"/>
      <point x="670.0" y="637" type="line" smooth="yes"/>
      <point x="671.0" y="731"/>
      <point x="580.0" y="817"/>
      <point x="470.0" y="817" type="qcurve" smooth="yes"/>
      <point x="355.0" y="817"/>
      <point x="255.0" y="779"/>
      <point x="277.0" y="795" type="qcurve"/>
      <point x="251.0" y="818"/>
      <point x="278.0" y="774"/>
      <point x="281.0" y="754" type="qcurve" smooth="yes"/>
      <point x="299.0" y="666"/>
      <point x="230.0" y="589"/>
      <point x="202.0" y="589" type="qcurve" smooth="yes"/>
      <point x="172.0" y="589"/>
      <point x="108.0" y="674"/>
      <point x="108.0" y="766" type="qcurve" smooth="yes"/>
      <point x="108.0" y="887"/>
      <point x="346.0" y="1021"/>
      <point x="481.0" y="1021" type="qcurve" smooth="yes"/>
      <point x="640.0" y="1021"/>
      <point x="831.0" y="837"/>
      <point x="833.0" y="628" type="qcurve" smooth="yes"/>
      <point x="838.0" y="196" type="line"/>
      <point x="986.0" y="164" type="line"/>
      <point x="986.0" y="0" type="line"/>
      <point x="753.0" y="0" type="line"/>
      <point x="689.0" y="69" type="line"/>
      <point x="676.0" y="142" type="line"/>
      <point x="622.0" y="86"/>
      <point x="407.0" y="-14"/>
      <point x="322.0" y="-14" type="qcurve" smooth="yes"/>
      <point x="212.0" y="-14"/>
      <point x="38.0" y="142"/>
    </contour>
  </outline>
</glyph>
<glyph name="b" format="2">
  <advance width="1158"/>
  <unicode hex="0062"/>
  <outline>
    <contour>
      <point x="167.0" y="0" type="line"/>
      <point x="177.0" y="427" type="line"/>
      <point x="167.0" y="1299" type="line"/>
      <point x="0.0" y="1326" type="line"/>
      <point x="0.0" y="1500" type="line"/>
      <point x="278.0" y="1534" type="line"/>
      <point x="309.0" y="1534" type="line"/>
      <point x="337.0" y="1502" type="line"/>
      <point x="335.0" y="862" type="line"/>
      <point x="385.0" y="932"/>
      <point x="554" y="1020"/>
      <point x="672.0" y="1020" type="qcurve" smooth="yes"/>
      <point x="854" y="1020"/>
      <point x="1090.0" y="754"/>
      <point x="1090.0" y="527" type="qcurve" smooth="yes"/>
      <point x="1090" y="286"/>
      <point x="845" y="-12"/>
      <point x="624.0" y="-12" type="qcurve" smooth="yes"/>
      <point x="535" y="-12"/>
      <point x="381.0" y="48"/>
      <point x="336.0" y="87" type="qcurve"/>
      <point x="250.0" y="0" type="line"/>
    </contour>
    <contour>
      <point x="326.0" y="497" type="line"/>
      <point x="335.0" y="295" type="line"/>
      <point x="364.0" y="249"/>
      <point x="494.0" y="179"/>
      <point x="615.0" y="179" type="qcurve" smooth="yes"/>
      <point x="763.0" y="179"/>
      <point x="906.0" y="365"/>
      <point x="906.0" y="505" type="qcurve" smooth="yes"/>
      <point x="906.0" y="636"/>
      <point x="765.0" y="808"/>
      <point x="620.0" y="808" type="qcurve" smooth="yes"/>
      <point x="498.0" y="808"/>
      <point x="372.0" y="739"/>
      <point x="335.0" y="687" type="qcurve"/>
    </contour>
  </outline>
</glyph>
<glyph name="j" format="2">
  <advance width="556"/>
  <unicode hex="006A"/>
  <outline>
    <contour>
      <point x="-133.0" y="-312" type="line"/>
      <point x="-50.0" y="-191" type="line"/>
      <point x="-19.0" y="-207" type="line" smooth="yes"/>
      <point x="-9" y="-212"/>
      <point x="41" y="-228"/>
      <point x="97.0" y="-228" type="qcurve" smooth="yes"/>
      <point x="167" y="-228.0"/>
      <point x="221" y="-169"/>
      <point x="221" y="-116" type="qcurve" smooth="yes"/>
      <point x="219.0" y="493" type="line"/>
      <point x="213.0" y="766" type="line"/>
      <point x="45.0" y="793" type="line"/>
      <point x="45.0" y="966" type="line"/>
      <point x="323.0" y="1000" type="line"/>
      <point x="370.0" y="1000" type="line"/>
      <point x="392.0" y="961" type="line"/>
      <point x="387.0" y="503" type="line"/>
      <point x="389.0" y="-126" type="line" smooth="yes"/>
      <point x="389.0" y="-311"/>
      <point x="228.0" y="-444"/>
      <point x="149.0" y="-444" type="qcurve" smooth="yes"/>
      <point x="90.0" y="-444"/>
      <point x="-46.0" y="-397"/>
      <point x="-91.0" y="-354" type="qcurve" smooth="yes"/>
    </contour>
    <contour>
      <point x="172" y="1337" type="qcurve" smooth="yes"/>
      <point x="172" y="1396"/>
      <point x="237" y="1460"/>
      <point x="298" y="1460" type="qcurve" smooth="yes"/>
      <point x="355" y="1460"/>
      <point x="424" y="1392"/>
      <point x="424" y="1337" type="qcurve" smooth="yes"/>
      <point x="424" y="1278"/>
      <point x="359" y="1214"/>
      <point x="298" y="1214" type="qcurve" smooth="yes"/>
      <point x="241" y="1214"/>
      <point x="172" y="1282"/>
    </contour>
  </outline>
</glyph>
<glyph name="l" format="2">
  <advance width="632"/>
  <unicode hex="006C"/>
  <outline>
    <contour>
      <point x="76.0" y="0" type="line"/>
      <point x="76.0" y="164" type="line"/>
      <point x="238.0" y="196" type="line"/>
      <point x="240.0" y="552" type="line"/>
      <point x="238.0" y="1296" type="line"/>
      <point x="52.0" y="1324" type="line"/>
      <point x="52.0" y="1499" type="line"/>
      <point x="348.0" y="1534" type="line"/>
      <point x="385.0" y="1532" type="line"/>
      <point x="408.0" y="1501" type="line"/>
      <point x="406.0" y="554" type="line"/>
      <point x="408.0" y="196" type="line"/>
      <point x="566.0" y="163" type="line"/>
      <point x="566.0" y="0" type="line"/>
    </contour>
  </outline>
</glyph>
<glyph name="o" format="2">
  <advance width="1168"/>
  <unicode hex="006F"/>
  <outline>
    <contour>
      <point x="64.0" y="500" type="qcurve" smooth="yes"/>
      <point x="64.0" y="730"/>
      <point x="365.0" y="1022"/>
      <point x="582.0" y="1022" type="qcurve" smooth="yes"/>
      <point x="799.0" y="1022"/>
      <point x="1104.0" y="748"/>
      <point x="1104.0" y="505" type="qcurve" smooth="yes"/>
      <point x="1104.0" y="276"/>
      <point x="805.0" y="-22"/>
      <point x="588.0" y="-22" type="qcurve" smooth="yes"/>
      <point x="371.0" y="-22"/>
      <point x="64.0" y="255"/>
    </contour>
    <contour>
      <point x="244.0" y="549" type="qcurve" smooth="yes"/>
      <point x="245.0" y="388"/>
      <point x="416.0" y="175"/>
      <point x="580.0" y="175" type="qcurve" smooth="yes"/>
      <point x="755.0" y="175"/>
      <point x="918.0" y="369"/>
      <point x="918.0" y="505" type="qcurve" smooth="yes"/>
      <point x="918.0" y="629"/>
      <point x="748.0" y="819"/>
      <point x="582.0" y="819" type="qcurve" smooth="yes"/>
      <point x="404.0" y="819"/>
      <point x="243.0" y="647"/>
    </contour>
  </outline>
</glyph>
<glyph name="q" format="2">
  <advance width="1188"/>
  <unicode hex="0071"/>
  <outline>
    <contour>
      <point x="68.0" y="480" type="qcurve" smooth="yes"/>
      <point x="68" y="723"/>
      <point x="337" y="1020"/>
      <point x="556.0" y="1020" type="qcurve" smooth="yes"/>
      <point x="639" y="1020"/>
      <point x="797.0" y="970"/>
      <point x="846.0" y="933" type="qcurve"/>
      <point x="903.0" y="1010" type="line"/>
      <point x="1148.0" y="973" type="line"/>
      <point x="1148.0" y="801" type="line"/>
      <point x="999.0" y="771" type="line"/>
      <point x="992.0" y="412" type="line"/>
      <point x="994.0" y="-237" type="line"/>
      <point x="1146.0" y="-269" type="line"/>
      <point x="1146.0" y="-433" type="line"/>
      <point x="651.0" y="-433" type="line"/>
      <point x="651.0" y="-268" type="line"/>
      <point x="824.0" y="-236" type="line"/>
      <point x="829.0" y="132" type="line"/>
      <point x="776.0" y="67"/>
      <point x="607" y="-9"/>
      <point x="496.0" y="-9" type="qcurve" smooth="yes"/>
      <point x="314" y="-9"/>
      <point x="68.0" y="252"/>
    </contour>
    <contour>
      <point x="252.0" y="503" type="qcurve" smooth="yes"/>
      <point x="252.0" y="371"/>
      <point x="402.0" y="203"/>
      <point x="548.0" y="203" type="qcurve" smooth="yes"/>
      <point x="665.0" y="203"/>
      <point x="794.0" y="260"/>
      <point x="831.0" y="305" type="qcurve"/>
      <point x="833.0" y="746" type="line"/>
      <point x="805.0" y="782"/>
      <point x="674" y="829"/>
      <point x="573.0" y="829" type="qcurve" smooth="yes"/>
      <point x="418" y="829"/>
      <point x="252.0" y="627"/>
    </contour>
  </outline>
</glyph>
<glyph name="r" format="2">
  <advance width="864"/>
  <unicode hex="0072"/>
  <anchor x="310" y="0" name="bottom"/>
  <outline>
    <contour>
      <point x="76.0" y="0" type="line"/>
      <point x="76.0" y="164" type="line"/>
      <point x="224.0" y="196" type="line"/>
      <point x="226.0" y="528" type="line"/>
      <point x="224.0" y="765" type="line"/>
      <point x="76.0" y="792" type="line"/>
      <point x="76.0" y="966" type="line"/>
      <point x="335.0" y="1000" type="line"/>
      <point x="368.0" y="974" type="line"/>
      <point x="393.0" y="870" type="line"/>
      <point x="449.0" y="925"/>
      <point x="625" y="1000.0"/>
      <point x="740.0" y="1000" type="qcurve" smooth="yes"/>
      <point x="838.0" y="1000" type="line"/>
      <point x="838.0" y="667" type="line"/>
      <point x="635.0" y="667" type="line"/>
      <point x="601.0" y="782" type="line"/>
      <point x="545" y="774"/>
      <point x="445.0" y="731"/>
      <point x="392.0" y="679" type="qcurve"/>
      <point x="392.0" y="556" type="line"/>
      <point x="394.0" y="196" type="line"/>
      <point x="572.0" y="164" type="line"/>
      <point x="572.0" y="0" type="line"/>
    </contour>
  </outline>
</glyph>
<glyph name="s" format="2">
  <advance width="872"/>
  <unicode hex="0073"/>
  <outline>
    <contour>
      <point x="52.0" y="0" type="line"/>
      <point x="52.0" y="404" type="line"/>
      <point x="235.0" y="404" type="line"/>
      <point x="249.0" y="340" type="line" smooth="yes"/>
      <point x="265" y="268"/>
      <point x="366" y="175.0"/>
      <point x="466" y="175.0" type="qcurve" smooth="yes"/>
      <point x="565" y="175"/>
      <point x="670" y="245"/>
      <point x="670.0" y="306" type="qcurve" smooth="yes"/>
      <point x="670.0" y="362"/>
      <point x="557.0" y="424"/>
      <point x="380" y="471" type="qcurve" smooth="yes"/>
      <point x="225.0" y="512"/>
      <point x="89" y="641"/>
      <point x="89" y="751" type="qcurve" smooth="yes"/>
      <point x="89.0" y="878.0"/>
      <point x="249.0" y="1032.0"/>
      <point x="396" y="1032.0" type="qcurve" smooth="yes"/>
      <point x="460" y="1032"/>
      <point x="549.0" y="988"/>
      <point x="576.0" y="959" type="qcurve"/>
      <point x="596.0" y="1000" type="line"/>
      <point x="739.0" y="1000" type="line"/>
      <point x="739.0" y="635" type="line"/>
      <point x="557.0" y="635" type="line"/>
      <point x="535" y="741" type="line" smooth="yes"/>
      <point x="527" y="779"/>
      <point x="457" y="834"/>
      <point x="392" y="834.0" type="qcurve" smooth="yes"/>
      <point x="312" y="834.0"/>
      <point x="241" y="793"/>
      <point x="241.0" y="754" type="qcurve" smooth="yes"/>
      <point x="241.0" y="717"/>
      <point x="328" y="655"/>
      <point x="485" y="611" type="qcurve" smooth="yes"/>
      <point x="639" y="568"/>
      <point x="824" y="434"/>
      <point x="824.0" y="289" type="qcurve" smooth="yes"/>
      <point x="824.0" y="143.0"/>
      <point x="634.0" y="-23.0"/>
      <point x="488" y="-23" type="qcurve" smooth="yes"/>
      <point x="392" y="-23"/>
      <point x="274.0" y="39"/>
      <point x="241.0" y="80" type="qcurve"/>
      <point x="193.0" y="0" type="line"/>
    </contour>
  </outline>
</glyph>
<glyph name="t" format="2">
  <advance width="612"/>
  <unicode hex="0074"/>
  <outline>
    <contour>
      <point x="16.0" y="791" type="line"/>
      <point x="16.0" y="947" type="line"/>
      <point x="134.0" y="974"/>
      <point x="251.0" y="1118"/>
      <point x="284.0" y="1180" type="qcurve"/>
      <point x="331.0" y="1180" type="line"/>
      <point x="364.0" y="1140" type="line"/>
      <point x="359.0" y="974" type="line"/>
      <point x="570.0" y="974" type="line"/>
      <point x="570.0" y="782" type="line"/>
      <point x="354.0" y="782" type="line"/>
      <point x="348.0" y="524" type="line"/>
      <point x="355" y="306" type="line" smooth="yes"/>
      <point x="357" y="246"/>
      <point x="408.0" y="196.0"/>
      <point x="473" y="196.0" type="qcurve" smooth="yes"/>
      <point x="547.0" y="196" type="line"/>
      <point x="547.0" y="29" type="line"/>
      <point x="314.0" y="-8" type="line"/>
      <point x="237" y="-8"/>
      <point x="172.0" y="73"/>
      <point x="172.0" y="162" type="qcurve"/>
      <point x="179.0" y="556" type="line"/>
      <point x="179.0" y="780" type="line"/>
    </contour>
  </outline>
</glyph>
<glyph name="u" format="2">
  <advance width="1244"/>
  <unicode hex="0075"/>
  <outline>
    <contour>
      <point x="56.0" y="792" type="line"/>
      <point x="56.0" y="966" type="line"/>
      <point x="314.0" y="1000" type="line"/>
      <point x="350.0" y="1000" type="line"/>
      <point x="374.0" y="964" type="line"/>
      <point x="372.0" y="473" type="line"/>
      <point x="372.0" y="309" type="line" smooth="yes"/>
      <point x="372" y="284"/>
      <point x="459.0" y="198"/>
      <point x="569.0" y="198" type="qcurve" smooth="yes"/>
      <point x="671.0" y="198"/>
      <point x="816.0" y="261"/>
      <point x="861.0" y="321" type="qcurve"/>
      <point x="862.0" y="474" type="line"/>
      <point x="860.0" y="765" type="line"/>
      <point x="722.0" y="792" type="line"/>
      <point x="722.0" y="966" type="line"/>
      <point x="970.0" y="1000" type="line"/>
      <point x="1005.0" y="1000" type="line"/>
      <point x="1030.0" y="964" type="line"/>
      <point x="1028.0" y="473" type="line"/>
      <point x="1030.0" y="226" type="line"/>
      <point x="1178.0" y="199" type="line"/>
      <point x="1178.0" y="34" type="line"/>
      <point x="920.0" y="0" type="line"/>
      <point x="885.0" y="27" type="line"/>
      <point x="861.0" y="147" type="line"/>
      <point x="804.0" y="72"/>
      <point x="615" y="-21"/>
      <point x="513.0" y="-21" type="qcurve" smooth="yes"/>
      <point x="359" y="-21"/>
      <point x="204" y="128"/>
      <point x="204.0" y="258" type="qcurve" smooth="yes"/>
      <point x="204" y="330"/>
      <point x="209" y="448"/>
      <point x="209.0" y="474" type="qcurve" smooth="yes"/>
      <point x="205.0" y="765" type="line"/>
    </contour>
  </outline>
</glyph>
<glyph name="v" format="2">
  <advance width="1026"/>
  <unicode hex="0076"/>
  <outline>
    <contour>
      <point x="-10.0" y="828" type="line"/>
      <point x="-10.0" y="1000" type="line"/>
      <point x="414.0" y="1000" type="line"/>
      <point x="414.0" y="828" type="line"/>
      <point x="308.0" y="801" type="line"/>
      <point x="403.0" y="535" type="line"/>
      <point x="510.0" y="242" type="line"/>
      <point x="616.0" y="547" type="line"/>
      <point x="702.0" y="805" type="line"/>
      <point x="592.0" y="826" type="line"/>
      <point x="592.0" y="1000" type="line"/>
      <point x="1056.0" y="1000" type="line"/>
      <point x="1056.0" y="827" type="line"/>
      <point x="903.0" y="794" type="line"/>
      <point x="778.0" y="459" type="line"/>
      <point x="617.0" y="-7" type="line"/>
      <point x="452.0" y="-7" type="line"/>
      <point x="266.0" y="481" type="line"/>
      <point x="141.0" y="795" type="line"/>
    </contour>
  </outline>
</glyph>
<glyph name="w" format="2">
  <advance width="1573"/>
  <unicode hex="0077"/>
  <outline>
    <contour>
      <point x="-10" y="830" type="line"/>
      <point x="-10" y="1000" type="line"/>
      <point x="414" y="1000" type="line"/>
      <point x="414" y="830" type="line"/>
      <point x="311" y="793" type="line"/>
      <point x="398" y="522" type="line"/>
      <point x="508" y="235" type="line"/>
      <point x="595" y="481" type="line"/>
      <point x="726" y="838" type="line"/>
      <point x="870" y="738" type="line"/>
      <point x="747" y="415" type="line"/>
      <point x="592.0" y="-8.0" type="line"/>
      <point x="444.0" y="-8.0" type="line"/>
      <point x="265" y="477" type="line"/>
      <point x="138" y="795" type="line"/>
    </contour>
    <contour>
      <point x="557" y="830" type="line"/>
      <point x="557" y="1000" type="line"/>
      <point x="984" y="1000" type="line"/>
      <point x="984" y="830" type="line"/>
      <point x="871" y="793" type="line"/>
      <point x="977" y="475" type="line"/>
      <point x="1075" y="220" type="line"/>
      <point x="1186" y="531" type="line"/>
      <point x="1275" y="800" type="line"/>
      <point x="1138" y="830" type="line"/>
      <point x="1138" y="1000" type="line"/>
      <point x="1603" y="1000" type="line"/>
      <point x="1603" y="830" type="line"/>
      <point x="1455" y="795" type="line"/>
      <point x="1335" y="489" type="line"/>
      <point x="1159.0" y="-8.0" type="line"/>
      <point x="1011.0" y="-8.0" type="line"/>
      <point x="849" y="432" type="line"/>
      <point x="705" y="795" type="line"/>
    </contour>
  </outline>
</glyph>
<glyph name="x" format="2">
  <advance width="1043"/>
  <unicode hex="0078"/>
  <outline>
    <contour>
      <point x="16" y="0" type="line"/>
      <point x="16" y="163" type="line"/>
      <point x="164" y="198" type="line"/>
      <point x="456" y="567" type="line"/>
      <point x="469" y="584" type="line"/>
      <point x="637" y="798" type="line"/>
      <point x="540" y="828" type="line"/>
      <point x="540" y="1000" type="line"/>
      <point x="1006" y="1000" type="line"/>
      <point x="1006" y="828" type="line"/>
      <point x="858" y="793" type="line"/>
      <point x="588" y="450" type="line"/>
      <point x="574" y="432" type="line"/>
      <point x="385" y="193" type="line"/>
      <point x="502" y="163" type="line"/>
      <point x="502" y="0" type="line"/>
    </contour>
    <contour>
      <point x="20" y="828" type="line"/>
      <point x="20" y="1000" type="line"/>
      <point x="472" y="1000" type="line"/>
      <point x="472" y="828" type="line"/>
      <point x="369" y="791" type="line"/>
      <point x="564" y="558" type="line"/>
      <point x="865" y="198" type="line"/>
      <point x="1043" y="163" type="line"/>
      <point x="1043" y="0" type="line"/>
      <point x="581" y="0" type="line"/>
      <point x="581" y="163" type="line"/>
      <point x="684" y="200" type="line"/>
      <point x="473" y="453" type="line"/>
      <point x="188" y="793" type="line"/>
    </contour>
  </outline>
</glyph>
<glyph name="y" format="2">
  <advance width="1056"/>
  <unicode hex="0079"/>
  <outline>
    <contour>
      <point x="-10" y="829" type="line"/>
      <point x="-10" y="1000" type="line"/>
      <point x="419" y="1000" type="line"/>
      <point x="419" y="829" type="line"/>
      <point x="311" y="792" type="line"/>
      <point x="403" y="535" type="line"/>
      <point x="502" y="281" type="line"/>
      <point x="597" y="549" type="line"/>
      <point x="680" y="799" type="line"/>
      <point x="540" y="829" type="line"/>
      <point x="540" y="1000" type="line"/>
      <point x="1086" y="1000" type="line"/>
      <point x="1086" y="829" type="line"/>
      <point x="905" y="794" type="line"/>
      <point x="771" y="489" type="line"/>
      <point x="521" y="-195" type="line" smooth="yes"/>
      <point x="444" y="-405"/>
      <point x="286" y="-492"/>
      <point x="197" y="-492" type="qcurve"/>
      <point x="39" y="-460" type="line"/>
      <point x="39" y="-292" type="line"/>
      <point x="140" y="-292" type="line" smooth="yes"/>
      <point x="215" y="-292"/>
      <point x="329" y="-204"/>
      <point x="357" y="-120" type="qcurve" smooth="yes"/>
      <point x="421" y="74" type="line"/>
      <point x="266" y="481" type="line"/>
      <point x="138" y="794" type="line"/>
    </contour>
  </outline>
</glyph>
<glyph name="braceleft" format="2">
  <advance width="693"/>
  <unicode hex="007B"/>
  <outline>
    <contour>
      <point x="60" y="421" type="line"/>
      <point x="60" y="629" type="line"/>
      <point x="191" y="639" type="line" smooth="yes"/>
      <point x="247" y="643"/>
      <point x="296" y="665"/>
      <point x="296" y="716" type="qcurve" smooth="yes"/>
      <point x="296" y="834"/>
      <point x="186" y="1066"/>
      <point x="186" y="1184" type="qcurve" smooth="yes"/>
      <point x="186" y="1343"/>
      <point x="357" y="1510"/>
      <point x="513" y="1510" type="qcurve" smooth="yes"/>
      <point x="584" y="1510"/>
      <point x="646" y="1503"/>
      <point x="683" y="1500" type="qcurve"/>
      <point x="683" y="1306" type="line"/>
      <point x="631" y="1308"/>
      <point x="588" y="1308"/>
      <point x="539" y="1308" type="qcurve" smooth="yes"/>
      <point x="457" y="1308"/>
      <point x="366" y="1234"/>
      <point x="366" y="1136" type="qcurve" smooth="yes"/>
      <point x="366" y="1034"/>
      <point x="452" y="883"/>
      <point x="452" y="792" type="qcurve" smooth="yes"/>
      <point x="452" y="697"/>
      <point x="387" y="571"/>
      <point x="336" y="550" type="qcurve"/>
      <point x="399" y="516"/>
      <point x="452" y="384"/>
      <point x="452" y="314" type="qcurve" smooth="yes"/>
      <point x="452" y="223"/>
      <point x="336" y="-18"/>
      <point x="336" y="-120" type="qcurve" smooth="yes"/>
      <point x="336" y="-218"/>
      <point x="432" y="-294"/>
      <point x="514" y="-294" type="qcurve" smooth="yes"/>
      <point x="563" y="-294"/>
      <point x="626" y="-294"/>
      <point x="678" y="-292" type="qcurve"/>
      <point x="678" y="-484" type="line"/>
      <point x="641" y="-487"/>
      <point x="559" y="-495"/>
      <point x="488" y="-495" type="qcurve" smooth="yes"/>
      <point x="332" y="-495"/>
      <point x="156" y="-327"/>
      <point x="156" y="-168" type="qcurve" smooth="yes"/>
      <point x="156" y="-50"/>
      <point x="295" y="246"/>
      <point x="295" y="364" type="qcurve"/>
      <point x="295" y="421" type="line"/>
    </contour>
  </outline>
</glyph>
<glyph name="bar" format="2">
  <advance width="1004"/>
  <unicode hex="007C"/>
  <outline>
    <contour>
      <point x="224" y="-540" type="line"/>
      <point x="227" y="-58" type="line"/>
      <point x="233" y="250" type="line"/>
      <point x="231" y="830" type="line"/>
      <point x="224" y="1138" type="line"/>
      <point x="222" y="1380" type="line"/>
      <point x="786" y="1550" type="line"/>
      <point x="781" y="1138" type="line"/>
      <point x="771" y="830" type="line"/>
      <point x="773" y="250" type="line"/>
      <point x="782" y="-58" type="line"/>
      <point x="784" y="-370" type="line"/>
    </contour>
  </outline>
</glyph>
<glyph name="braceright" format="2">
  <advance width="693"/>
  <unicode hex="007D"/>
  <outline>
    <contour>
      <point x="10" y="-485" type="qcurve"/>
      <point x="10" y="-291" type="line"/>
      <point x="62" y="-293"/>
      <point x="105" y="-293"/>
      <point x="154" y="-293" type="qcurve" smooth="yes"/>
      <point x="236" y="-293"/>
      <point x="327" y="-219"/>
      <point x="327" y="-121" type="qcurve" smooth="yes"/>
      <point x="327" y="-19"/>
      <point x="241" y="132"/>
      <point x="241" y="223" type="qcurve" smooth="yes"/>
      <point x="241" y="318"/>
      <point x="306" y="444"/>
      <point x="357" y="465" type="qcurve"/>
      <point x="294" y="499"/>
      <point x="241" y="631"/>
      <point x="241" y="701" type="qcurve" smooth="yes"/>
      <point x="241" y="792"/>
      <point x="357" y="1033"/>
      <point x="357" y="1135" type="qcurve" smooth="yes"/>
      <point x="357" y="1233"/>
      <point x="261" y="1309"/>
      <point x="179" y="1309" type="qcurve" smooth="yes"/>
      <point x="130" y="1309"/>
      <point x="67" y="1309"/>
      <point x="15" y="1307" type="qcurve"/>
      <point x="15" y="1499" type="line"/>
      <point x="52" y="1502"/>
      <point x="134" y="1510"/>
      <point x="205" y="1510" type="qcurve" smooth="yes"/>
      <point x="361" y="1510"/>
      <point x="537" y="1342"/>
      <point x="537" y="1183" type="qcurve" smooth="yes"/>
      <point x="537" y="1065"/>
      <point x="398" y="769"/>
      <point x="398" y="651" type="qcurve"/>
      <point x="398" y="594" type="line"/>
      <point x="633" y="594" type="line"/>
      <point x="633" y="386" type="line"/>
      <point x="502" y="376" type="line" smooth="yes"/>
      <point x="446" y="372"/>
      <point x="397" y="350"/>
      <point x="397" y="299" type="qcurve" smooth="yes"/>
      <point x="397" y="181"/>
      <point x="507" y="-51"/>
      <point x="507" y="-169" type="qcurve" smooth="yes"/>
      <point x="507" y="-328"/>
      <point x="336" y="-495"/>
      <point x="180" y="-495" type="qcurve" smooth="yes"/>
      <point x="109" y="-495"/>
      <point x="47" y="-488"/>
    </contour>
  </outline>
</glyph>
<glyph name="cent" format="2">
  <advance width="974"/>
  <unicode hex="00A2"/>
  <outline>
    <contour>
      <point x="64" y="499" type="qcurve" smooth="yes"/>
      <point x="64" y="772"/>
      <point x="341" y="1049"/>
      <point x="526" y="1049.0" type="qcurve" smooth="yes"/>
      <point x="589" y="1049.0"/>
      <point x="686" y="1011.0"/>
      <point x="715" y="990.0" type="qcurve"/>
      <point x="746" y="1045.0" type="line"/>
      <point x="884.0" y="1020" type="line"/>
      <point x="906.0" y="619" type="line"/>
      <point x="729" y="591.0" type="line"/>
      <point x="709" y="680.0" type="line" smooth="yes"/>
      <point x="694" y="747"/>
      <point x="590" y="841.0"/>
      <point x="509" y="841.0" type="qcurve" smooth="yes"/>
      <point x="376" y="841.0"/>
      <point x="244" y="674.0"/>
      <point x="244" y="535.0" type="qcurve" smooth="yes"/>
      <point x="244" y="389.0"/>
      <point x="426" y="215"/>
      <point x="614.0" y="215" type="qcurve" smooth="yes"/>
      <point x="713" y="215"/>
      <point x="840.0" y="241"/>
      <point x="880.0" y="263" type="qcurve"/>
      <point x="966.0" y="170" type="line"/>
      <point x="917.0" y="99"/>
      <point x="729" y="-22"/>
      <point x="575.0" y="-22" type="qcurve" smooth="yes"/>
      <point x="344" y="-22"/>
      <point x="64" y="244"/>
    </contour>
    <contour>
      <point x="409.0" y="-185" type="line"/>
      <point x="409.0" y="124" type="line"/>
      <point x="446.0" y="124" type="line"/>
      <point x="446.0" y="586" type="line"/>
      <point x="620.0" y="547" type="line"/>
      <point x="620.0" y="124" type="line"/>
      <point x="659.0" y="124" type="line"/>
      <point x="659.0" y="-139" type="line"/>
    </contour>
    <contour>
      <point x="408.0" y="1198" type="line"/>
      <point x="658.0" y="1244" type="line"/>
      <point x="658.0" y="912" type="line"/>
      <point x="620.0" y="912" type="line"/>
      <point x="620.0" y="547" type="line"/>
      <point x="446.0" y="586" type="line"/>
      <point x="446.0" y="912" type="line"/>
      <point x="408.0" y="912" type="line"/>
    </contour>
  </outline>
</glyph>
<glyph name="sterling" format="2">
  <advance width="1072"/>
  <unicode hex="00A3"/>
  <outline>
    <contour>
      <point x="607" y="549" type="qcurve" smooth="yes"/>
      <point x="607" y="407"/>
      <point x="352" y="160"/>
      <point x="216" y="122" type="qcurve"/>
      <point x="216.0" y="115" type="line"/>
      <point x="664.0" y="109" type="line"/>
      <point x="802.0" y="373" type="line"/>
      <point x="1030.0" y="373" type="line"/>
      <point x="926.0" y="0" type="line"/>
      <point x="101.0" y="0" type="line"/>
      <point x="10.0" y="157" type="line"/>
      <point x="103.0" y="263" type="line"/>
      <point x="279" y="253"/>
      <point x="431.0" y="427.0"/>
      <point x="431.0" y="525" type="qcurve"/>
      <point x="431" y="624"/>
      <point x="340" y="741"/>
      <point x="281.0" y="800" type="qcurve" smooth="yes"/>
      <point x="216" y="865"/>
      <point x="111" y="1015"/>
      <point x="111" y="1141" type="qcurve" smooth="yes"/>
      <point x="111" y="1299"/>
      <point x="350" y="1502"/>
      <point x="543.0" y="1502" type="qcurve" smooth="yes"/>
      <point x="667" y="1502"/>
      <point x="884.0" y="1435"/>
      <point x="964.0" y="1373" type="qcurve"/>
      <point x="845.0" y="1207" type="line"/>
      <point x="805.0" y="1227.0"/>
      <point x="662" y="1265"/>
      <point x="547.0" y="1265" type="qcurve" smooth="yes"/>
      <point x="409.0" y="1265.0"/>
      <point x="280" y="1186"/>
      <point x="280.0" y="1131" type="qcurve" smooth="yes"/>
      <point x="280.0" y="1075"/>
      <point x="377" y="957"/>
      <point x="453.0" y="876" type="qcurve" smooth="yes"/>
      <point x="544.0" y="779"/>
      <point x="607" y="623"/>
    </contour>
    <contour>
      <point x="186.0" y="527" type="line"/>
      <point x="140.0" y="768" type="line"/>
      <point x="915.0" y="768" type="line"/>
      <point x="857.0" y="527" type="line"/>
    </contour>
  </outline>
</glyph>
<glyph name="brokenbar" format="2">
  <advance width="1004"/>
  <unicode hex="00A6"/>
  <outline>
    <contour>
      <point x="222" y="628" type="line"/>
      <point x="231" y="900" type="line"/>
      <point x="219" y="1208" type="line"/>
      <point x="207" y="1480" type="line"/>
      <point x="797" y="1550" type="line"/>
      <point x="785" y="1208" type="line"/>
      <point x="771" y="900" type="line"/>
      <point x="773" y="678" type="line"/>
    </contour>
    <contour>
      <point x="207" y="-540" type="line"/>
      <point x="219" y="-128" type="line"/>
      <point x="233" y="180" type="line"/>
      <point x="231" y="388" type="line"/>
      <point x="782" y="448" type="line"/>
      <point x="773" y="180" type="line"/>
      <point x="785" y="-128" type="line"/>
      <point x="797" y="-470" type="line"/>
    </contour>
  </outline>
</glyph>
<glyph name="questiondown" format="2">
  <advance width="934"/>
  <unicode hex="00BF"/>
  <outline>
    <contour>
      <point x="703" y="1205" type="qcurve" smooth="yes"/>
      <point x="703" y="1147"/>
      <point x="622" y="1061"/>
      <point x="559" y="1061" type="qcurve" smooth="yes"/>
      <point x="496" y="1061"/>
      <point x="415" y="1147"/>
      <point x="415" y="1205" type="qcurve" smooth="yes"/>
      <point x="415" y="1262"/>
      <point x="496" y="1348"/>
      <point x="559" y="1348" type="qcurve" smooth="yes"/>
      <point x="622" y="1348"/>
      <point x="703" y="1262"/>
    </contour>
    <contour>
      <point x="901" y="92" type="qcurve" smooth="yes"/>
      <point x="901" y="-51"/>
      <point x="668" y="-214"/>
      <point x="464" y="-214" type="qcurve" smooth="yes"/>
      <point x="267" y="-214"/>
      <point x="20" y="-22"/>
      <point x="20" y="163" type="qcurve" smooth="yes"/>
      <point x="20.0" y="322.0"/>
      <point x="172" y="512"/>
      <point x="301" y="570" type="qcurve" smooth="yes"/>
      <point x="414" y="621"/>
      <point x="465" y="747"/>
      <point x="457" y="836" type="qcurve" smooth="yes"/>
      <point x="452" y="891" type="line"/>
      <point x="692" y="891" type="line"/>
      <point x="696" y="866" type="line" smooth="yes"/>
      <point x="714" y="752"/>
      <point x="551" y="570"/>
      <point x="439" y="506" type="qcurve" smooth="yes"/>
      <point x="309" y="431"/>
      <point x="208" y="297"/>
      <point x="208.0" y="203.0" type="qcurve" smooth="yes"/>
      <point x="208.0" y="107.0"/>
      <point x="352.0" y="-1.0"/>
      <point x="499" y="-1" type="qcurve" smooth="yes"/>
      <point x="621" y="-1"/>
      <point x="757" y="16"/>
      <point x="757" y="37" type="qcurve" smooth="yes"/>
      <point x="757" y="62"/>
      <point x="636" y="122"/>
      <point x="634" y="171" type="qcurve" smooth="yes"/>
      <point x="631" y="211"/>
      <point x="692" y="275"/>
      <point x="752" y="275" type="qcurve" smooth="yes"/>
      <point x="818" y="275"/>
      <point x="901" y="182"/>
    </contour>
  </outline>
</glyph>
<glyph name="divide" format="2">
  <advance width="1024"/>
  <unicode hex="00F7"/>
  <outline>
    <contour>
      <point x="80" y="486" type="line"/>
      <point x="80" y="778" type="line"/>
      <point x="944" y="778" type="line"/>
      <point x="944" y="486" type="line"/>
    </contour>
    <contour>
      <point x="382" y="237" type="qcurve" smooth="yes"/>
      <point x="382" y="289"/>
      <point x="455" y="367"/>
      <point x="512" y="367" type="qcurve" smooth="yes"/>
      <point x="569" y="367"/>
      <point x="642" y="289"/>
      <point x="642" y="237" type="qcurve" smooth="yes"/>
      <point x="642" y="186"/>
      <point x="569" y="108"/>
      <point x="512" y="108" type="qcurve" smooth="yes"/>
      <point x="455" y="108"/>
      <point x="382" y="186"/>
    </contour>
    <contour>
      <point x="382" y="1028" type="qcurve" smooth="yes"/>
      <point x="382" y="1080"/>
      <point x="455" y="1158"/>
      <point x="512" y="1158" type="qcurve" smooth="yes"/>
      <point x="569" y="1158"/>
      <point x="642" y="1080"/>
      <point x="642" y="1028" type="qcurve" smooth="yes"/>
      <point x="642" y="977"/>
      <point x="569" y="899"/>
      <point x="512" y="899" type="qcurve" smooth="yes"/>
      <point x="455" y="899"/>
      <point x="382" y="977"/>
    </contour>
  </outline>
</glyph>
<glyph name="thorn" format="2">
  <advance width="1156"/>
  <unicode hex="00FE"/>
  <outline>
    <contour>
      <point x="19.0" y="-481" type="line"/>
      <point x="19.0" y="-317" type="line"/>
      <point x="162.0" y="-285" type="line"/>
      <point x="164.0" y="427" type="line"/>
      <point x="163.0" y="1299" type="line"/>
      <point x="-3.0" y="1326" type="line"/>
      <point x="-3.0" y="1500" type="line"/>
      <point x="273.0" y="1534" type="line"/>
      <point x="305.0" y="1534" type="line"/>
      <point x="333.0" y="1502" type="line"/>
      <point x="332.0" y="862" type="line"/>
      <point x="382.0" y="932"/>
      <point x="551" y="1020"/>
      <point x="669.0" y="1020" type="qcurve" smooth="yes"/>
      <point x="851" y="1020"/>
      <point x="1088.0" y="754"/>
      <point x="1088.0" y="530" type="qcurve"/>
      <point x="1088.0" y="286"/>
      <point x="840" y="-12"/>
      <point x="635.0" y="-12" type="qcurve" smooth="yes"/>
      <point x="533" y="-12"/>
      <point x="375.0" y="48"/>
      <point x="330.0" y="89" type="qcurve"/>
      <point x="332.0" y="-285" type="line"/>
      <point x="484.0" y="-317" type="line"/>
      <point x="484.0" y="-481" type="line"/>
    </contour>
    <contour>
      <point x="330.0" y="297" type="line"/>
      <point x="359.0" y="251"/>
      <point x="491.0" y="180"/>
      <point x="612.0" y="180" type="qcurve" smooth="yes"/>
      <point x="760.0" y="180"/>
      <point x="904.0" y="365"/>
      <point x="904.0" y="505" type="qcurve" smooth="yes"/>
      <point x="904.0" y="636"/>
      <point x="762.0" y="806"/>
      <point x="617.0" y="806" type="qcurve" smooth="yes"/>
      <point x="497.0" y="806"/>
      <point x="369.0" y="738"/>
      <point x="331.0" y="686" type="qcurve"/>
      <point x="328.0" y="426" type="line"/>
    </contour>
  </outline>
</glyph>
<glyph name="OE" format="2">
  <advance width="2030"/>
  <unicode hex="0152"/>
  <outline>
    <contour>
      <point x="80.0" y="738" type="qcurve" smooth="yes"/>
      <point x="80.0" y="1083"/>
      <point x="491" y="1517"/>
      <point x="812.0" y="1517" type="qcurve" smooth="yes"/>
      <point x="888.0" y="1517"/>
      <point x="1115.0" y="1500"/>
      <point x="1210.0" y="1500" type="qcurve" smooth="yes"/>
      <point x="1896.0" y="1500" type="line"/>
      <point x="1896.0" y="1069" type="line"/>
      <point x="1689.0" y="1069" type="line"/>
      <point x="1654.0" y="1282" type="line"/>
      <point x="1277.0" y="1282" type="line"/>
      <point x="1269.0" y="1277" type="line"/>
      <point x="1267.0" y="779" type="line"/>
      <point x="1269.0" y="216" type="line"/>
      <point x="1279.0" y="208" type="line"/>
      <point x="1720.0" y="208" type="line"/>
      <point x="1796.0" y="459" type="line"/>
      <point x="2010.0" y="459" type="line"/>
      <point x="1958.0" y="0" type="line"/>
      <point x="1270.0" y="0" type="line" smooth="yes"/>
      <point x="1172" y="0"/>
      <point x="916.0" y="-24"/>
      <point x="816.0" y="-24" type="qcurve" smooth="yes"/>
      <point x="504" y="-24"/>
      <point x="80.0" y="383"/>
    </contour>
    <contour>
      <point x="271.0" y="769" type="qcurve" smooth="yes"/>
      <point x="271.0" y="535"/>
      <point x="550.0" y="198"/>
      <point x="814.0" y="198" type="qcurve" smooth="yes"/>
      <point x="926.0" y="198"/>
      <point x="1059.0" y="211"/>
      <point x="1090.0" y="219" type="qcurve"/>
      <point x="1092.0" y="778" type="line"/>
      <point x="1090.0" y="1267" type="line"/>
      <point x="1081.0" y="1268"/>
      <point x="922.0" y="1288"/>
      <point x="814.0" y="1288" type="qcurve" smooth="yes"/>
      <point x="526.0" y="1288"/>
      <point x="271.0" y="994"/>
    </contour>
    <contour>
      <point x="1181.0" y="656" type="line"/>
      <point x="1181.0" y="851" type="line"/>
      <point x="1509.0" y="861" type="line"/>
      <point x="1545.0" y="1010" type="line"/>
      <point x="1750.0" y="1010" type="line"/>
      <point x="1750.0" y="497" type="line"/>
      <point x="1545.0" y="497" type="line"/>
      <point x="1509.0" y="646" type="line"/>
    </contour>
  </outline>
</glyph>
<glyph name="quotedblbase" format="2">
  <advance width="1030"/>
  <unicode hex="201E"/>
  <outline>
    <contour>
      <point x="72" y="-150" type="line"/>
      <point x="115" y="-121"/>
      <point x="170" y="-65"/>
      <point x="170" y="-42" type="qcurve" smooth="yes"/>
      <point x="170" y="-16"/>
      <point x="155" y="64"/>
      <point x="155" y="117" type="qcurve" smooth="yes"/>
      <point x="155" y="175"/>
      <point x="236" y="252"/>
      <point x="299" y="252" type="qcurve" smooth="yes"/>
      <point x="358" y="252"/>
      <point x="454" y="156"/>
      <point x="454" y="79" type="qcurve" smooth="yes"/>
      <point x="454" y="-43"/>
      <point x="295" y="-231"/>
      <point x="190" y="-281" type="qcurve"/>
    </contour>
    <contour>
      <point x="503" y="-150" type="line"/>
      <point x="546" y="-121"/>
      <point x="601" y="-65"/>
      <point x="601" y="-42" type="qcurve" smooth="yes"/>
      <point x="601" y="-16"/>
      <point x="586" y="64"/>
      <point x="586" y="117" type="qcurve" smooth="yes"/>
      <point x="586" y="175"/>
      <point x="667" y="252"/>
      <point x="730" y="252" type="qcurve" smooth="yes"/>
      <point x="789" y="252"/>
      <point x="885" y="156"/>
      <point x="885" y="79" type="qcurve" smooth="yes"/>
      <point x="885" y="-43"/>
      <point x="726" y="-231"/>
      <point x="621" y="-281" type="qcurve"/>
    </contour>
  </outline>
</glyph>
<glyph name="dagger" format="2">
  <advance width="968"/>
  <unicode hex="2020"/>
  <outline>
    <contour>
      <point x="369" y="-540" type="line"/>
      <point x="391" y="-58" type="line"/>
      <point x="315" y="550" type="line"/>
      <point x="313" y="830" type="line"/>
      <point x="381" y="1438" type="line"/>
      <point x="431" y="1503" type="line"/>
      <point x="511" y="1506" type="line"/>
      <point x="557" y="1438" type="line"/>
      <point x="633" y="830" type="line"/>
      <point x="635" y="550" type="line"/>
      <point x="557" y="-58" type="line"/>
      <point x="589" y="-540" type="line"/>
    </contour>
    <contour>
      <point x="72" y="652" type="line"/>
      <point x="72" y="900" type="line"/>
      <point x="475" y="892" type="line"/>
      <point x="896" y="900" type="line"/>
      <point x="896" y="652" type="line"/>
      <point x="475" y="656" type="line"/>
    </contour>
  </outline>
</glyph>
<glyph name="second" format="2">
  <advance width="984"/>
  <unicode hex="2033"/>
  <outline>
    <contour>
      <point x="30" y="1004" type="line"/>
      <point x="300" y="1482" type="line" smooth="yes"/>
      <point x="324" y="1524"/>
      <point x="411" y="1573"/>
      <point x="467" y="1542" type="qcurve" smooth="yes"/>
      <point x="522" y="1512"/>
      <point x="535" y="1405"/>
      <point x="503" y="1369" type="qcurve" smooth="yes"/>
      <point x="171" y="925" type="line"/>
    </contour>
    <contour>
      <point x="430" y="1004" type="line"/>
      <point x="700" y="1482" type="line" smooth="yes"/>
      <point x="724" y="1524"/>
      <point x="811" y="1573"/>
      <point x="867" y="1542" type="qcurve" smooth="yes"/>
      <point x="922" y="1512"/>
      <point x="935" y="1405"/>
      <point x="903" y="1369" type="qcurve" smooth="yes"/>
      <point x="571" y="925" type="line"/>
    </contour>
  </outline>
</glyph>
<glyph name="guilsinglright" format="2">
  <advance width="847"/>
  <unicode hex="203A"/>
  <outline>
    <contour>
      <point x="822" y="588" type="line"/>
      <point x="822" y="588"/>
      <point x="368.0" y="289"/>
      <point x="259" y="216" type="qcurve" smooth="yes"/>
      <point x="150" y="142.0"/>
      <point x="9" y="314"/>
      <point x="122" y="374.0" type="qcurve"/>
      <point x="323" y="481"/>
      <point x="538" y="585"/>
      <point x="563" y="599" type="qcurve"/>
      <point x="535" y="612"/>
      <point x="248" y="763"/>
      <point x="116" y="841" type="qcurve"/>
      <point x="7" y="900"/>
      <point x="113" y="1076.0"/>
      <point x="232" y="1015" type="qcurve" smooth="yes"/>
      <point x="337" y="961"/>
      <point x="747" y="676"/>
      <point x="822" y="628" type="qcurve"/>
    </contour>
  </outline>
</glyph>
<glyph name="fraction" format="2">
  <advance width="509"/>
  <unicode hex="2044"/>
  <outline>
    <contour>
      <point x="-420" y="56" type="line"/>
      <point x="738" y="1560" type="line"/>
      <point x="929" y="1421" type="line"/>
      <point x="-229" y="-83" type="line"/>
    </contour>
  </outline>
</glyph>
<glyph name="colonsign" format="2">
  <advance width="1312"/>
  <unicode hex="20A1"/>
  <outline>
    <contour>
      <point x="114.0" y="696" type="qcurve" smooth="yes"/>
      <point x="114.0" y="993"/>
      <point x="470" y="1448"/>
      <point x="778.0" y="1448" type="qcurve" smooth="yes"/>
      <point x="861" y="1448"/>
      <point x="958.0" y="1422"/>
      <point x="995.0" y="1410" type="qcurve"/>
      <point x="1223.0" y="1345" type="line"/>
      <point x="1211.0" y="916" type="line"/>
      <point x="1031.0" y="916" type="line"/>
      <point x="1000" y="1048" type="line" smooth="yes"/>
      <point x="982" y="1125"/>
      <point x="847" y="1228"/>
      <point x="728" y="1228.0" type="qcurve" smooth="yes"/>
      <point x="566.0" y="1228.0"/>
      <point x="307.0" y="992.0"/>
      <point x="308" y="751" type="qcurve" smooth="yes"/>
      <point x="309" y="520"/>
      <point x="561" y="272"/>
      <point x="782.0" y="272" type="qcurve" smooth="yes"/>
      <point x="915.0" y="272.0"/>
      <point x="1137.0" y="344.0"/>
      <point x="1180.0" y="382" type="qcurve"/>
      <point x="1301.0" y="277" type="line"/>
      <point x="1227.0" y="168"/>
      <point x="947" y="17"/>
      <point x="787.0" y="17" type="qcurve" smooth="yes"/>
      <point x="456" y="17"/>
      <point x="114" y="425"/>
    </contour>
    <contour>
      <point x="498.0" y="-137" type="line"/>
      <point x="577.0" y="184" type="line"/>
      <point x="588.0" y="179" type="line"/>
      <point x="759.0" y="868" type="line"/>
      <point x="987.0" y="795" type="line"/>
      <point x="826.0" y="149" type="line"/>
      <point x="839.0" y="145" type="line"/>
      <point x="774.0" y="-124" type="line"/>
    </contour>
    <contour>
      <point x="917.0" y="1562" type="line"/>
      <point x="1190.0" y="1563" type="line"/>
      <point x="1114.0" y="1252" type="line"/>
      <point x="1102.0" y="1256" type="line"/>
      <point x="967.0" y="718" type="line"/>
      <point x="739.0" y="791" type="line"/>
      <point x="864.0" y="1289" type="line"/>
      <point x="852.0" y="1293" type="line"/>
    </contour>
    <contour>
      <point x="217.0" y="-72" type="line"/>
      <point x="322.0" y="315" type="line"/>
      <point x="333.0" y="310" type="line"/>
      <point x="468.0" y="868" type="line"/>
      <point x="696.0" y="795" type="line"/>
      <point x="571.0" y="280" type="line"/>
      <point x="586.0" y="275" type="line"/>
      <point x="495.0" y="-60" type="line"/>
    </contour>
    <contour>
      <point x="627.0" y="1562" type="line"/>
      <point x="901.0" y="1563" type="line"/>
      <point x="831.0" y="1286" type="line"/>
      <point x="819.0" y="1289" type="line"/>
      <point x="677.0" y="718" type="line"/>
      <point x="449.0" y="791" type="line"/>
      <point x="574.0" y="1294" type="line"/>
      <point x="560.0" y="1299" type="line"/>
    </contour>
  </outline>
</glyph>
<glyph name="franc" format="2">
  <advance width="1056"/>
  <unicode hex="20A3"/>
  <outline>
    <contour>
      <point x="82" y="0" type="line"/>
      <point x="82" y="202" type="line"/>
      <point x="290" y="236" type="line"/>
      <point x="292" y="758" type="line"/>
      <point x="290" y="1253" type="line"/>
      <point x="82" y="1284" type="line"/>
      <point x="82" y="1500" type="line"/>
      <point x="972" y="1500" type="line"/>
      <point x="1054" y="1061" type="line"/>
      <point x="835" y="1061" type="line"/>
      <point x="740" y="1275" type="line"/>
      <point x="477" y="1275" type="line"/>
      <point x="470" y="1271" type="line"/>
      <point x="468" y="769" type="line"/>
      <point x="470" y="233" type="line"/>
      <point x="698" y="203" type="line"/>
      <point x="698" y="0" type="line"/>
    </contour>
    <contour>
      <point x="380" y="675" type="line"/>
      <point x="380" y="884" type="line"/>
      <point x="680" y="890" type="line"/>
      <point x="716" y="1022" type="line"/>
      <point x="920" y="1022" type="line"/>
      <point x="920" y="541" type="line"/>
      <point x="716" y="541" type="line"/>
      <point x="681" y="669" type="line"/>
    </contour>
    <contour>
      <point x="41" y="275" type="line"/>
      <point x="26" y="508" type="line"/>
      <point x="750" y="507" type="line"/>
      <point x="725" y="275" type="line"/>
    </contour>
  </outline>
</glyph>
<glyph name="peseta" format="2">
  <advance width="2286"/>
  <unicode hex="20A7"/>
  <outline>
    <contour>
      <point x="82" y="0" type="line"/>
      <point x="82" y="202" type="line"/>
      <point x="290" y="236" type="line"/>
      <point x="292" y="753" type="line"/>
      <point x="290" y="1253" type="line"/>
      <point x="82" y="1284" type="line"/>
      <point x="82" y="1500" type="line"/>
      <point x="589" y="1500" type="line" smooth="yes"/>
      <point x="778" y="1500"/>
      <point x="1034" y="1278"/>
      <point x="1034" y="1098" type="qcurve" smooth="yes"/>
      <point x="1034" y="855"/>
      <point x="787" y="609"/>
      <point x="595" y="609" type="qcurve" smooth="yes"/>
      <point x="588" y="609"/>
      <point x="445" y="626"/>
      <point x="380" y="646" type="qcurve"/>
      <point x="398" y="838" type="line"/>
      <point x="402" y="836"/>
      <point x="483" y="828"/>
      <point x="555" y="828" type="qcurve" smooth="yes"/>
      <point x="713" y="828"/>
      <point x="846" y="971"/>
      <point x="846" y="1072" type="qcurve" smooth="yes"/>
      <point x="846" y="1161"/>
      <point x="705" y="1275"/>
      <point x="552" y="1275" type="qcurve" smooth="yes"/>
      <point x="476" y="1275" type="line"/>
      <point x="470" y="1272" type="line"/>
      <point x="468" y="810" type="line"/>
      <point x="470" y="233" type="line"/>
      <point x="678" y="203" type="line"/>
      <point x="678" y="0" type="line"/>
    </contour>
    <contour>
      <point x="986" y="777" type="line"/>
      <point x="986" y="948" type="line"/>
      <point x="1157" y="966"/>
      <point x="1248" y="1144"/>
      <point x="1255" y="1256" type="qcurve"/>
      <point x="1281" y="1256" type="line"/>
      <point x="1362" y="1191" type="line"/>
      <point x="1344" y="968" type="line"/>
      <point x="1540" y="968" type="line"/>
      <point x="1540" y="759" type="line"/>
      <point x="1324" y="759" type="line"/>
      <point x="1318" y="614" type="line"/>
      <point x="1326" y="294" type="line" smooth="yes"/>
      <point x="1327" y="246"/>
      <point x="1370" y="216.0"/>
      <point x="1425" y="216" type="qcurve" smooth="yes"/>
      <point x="1517" y="216" type="line"/>
      <point x="1518" y="29" type="line"/>
      <point x="1285" y="-10" type="line"/>
      <point x="1204" y="-10"/>
      <point x="1142" y="69"/>
      <point x="1142" y="162" type="qcurve"/>
      <point x="1149" y="581" type="line"/>
      <point x="1149" y="729" type="line"/>
    </contour>
    <contour>
      <point x="1512" y="30" type="line"/>
      <point x="1508" y="423" type="line"/>
      <point x="1686" y="423" type="line"/>
      <point x="1701" y="349" type="line" smooth="yes"/>
      <point x="1721" y="251"/>
      <point x="1802" y="195.0"/>
      <point x="1903" y="195.0" type="qcurve" smooth="yes"/>
      <point x="2000" y="195"/>
      <point x="2095.0" y="245.0"/>
      <point x="2095" y="293" type="qcurve" smooth="yes"/>
      <point x="2095" y="341"/>
      <point x="2006" y="413"/>
      <point x="1818" y="465" type="qcurve" smooth="yes"/>
      <point x="1690" y="502"/>
      <point x="1544" y="638"/>
      <point x="1544" y="745" type="qcurve" smooth="yes"/>
      <point x="1544" y="886"/>
      <point x="1722" y="1014"/>
      <point x="1849" y="1014" type="qcurve" smooth="yes"/>
      <point x="1893" y="1014"/>
      <point x="1990" y="981"/>
      <point x="2029" y="957" type="qcurve"/>
      <point x="2047" y="983" type="line"/>
      <point x="2160" y="983" type="line"/>
      <point x="2160" y="639" type="line"/>
      <point x="1984" y="639" type="line"/>
      <point x="1970" y="712" type="line" smooth="yes"/>
      <point x="1960" y="762"/>
      <point x="1895" y="832.0"/>
      <point x="1824" y="832.0" type="qcurve" smooth="yes"/>
      <point x="1751" y="832"/>
      <point x="1688.0" y="788.0"/>
      <point x="1688" y="752" type="qcurve" smooth="yes"/>
      <point x="1688" y="715"/>
      <point x="1759" y="653"/>
      <point x="1907" y="610" type="qcurve" smooth="yes"/>
      <point x="2066" y="563"/>
      <point x="2241.0" y="421.0"/>
      <point x="2241.0" y="279" type="qcurve" smooth="yes"/>
      <point x="2241" y="162"/>
      <point x="2057" y="-23"/>
      <point x="1904" y="-23" type="qcurve" smooth="yes"/>
      <point x="1816" y="-23"/>
      <point x="1691" y="28"/>
      <point x="1671" y="43" type="qcurve"/>
      <point x="1643" y="1" type="line"/>
    </contour>
  </outline>
</glyph>
<glyph name="won" format="2">
  <advance width="2072"/>
  <unicode hex="20A9"/>
  <outline>
    <contour>
      <point x="0" y="1286" type="line"/>
      <point x="0" y="1500" type="line"/>
      <point x="500" y="1500" type="line"/>
      <point x="500" y="1287" type="line"/>
      <point x="362" y="1256" type="line"/>
      <point x="524" y="801" type="line"/>
      <point x="691" y="332" type="line"/>
      <point x="829" y="718" type="line"/>
      <point x="1005" y="1207" type="line"/>
      <point x="1101" y="958" type="line"/>
      <point x="980" y="595" type="line"/>
      <point x="747" y="-10" type="line"/>
      <point x="632" y="-10" type="line"/>
      <point x="372" y="702" type="line"/>
      <point x="174" y="1249" type="line"/>
    </contour>
    <contour>
      <point x="715" y="1294" type="line"/>
      <point x="715" y="1500" type="line"/>
      <point x="1218" y="1500" type="line"/>
      <point x="1218" y="1294" type="line"/>
      <point x="1078" y="1262" type="line"/>
      <point x="1225" y="801" type="line"/>
      <point x="1378" y="332" type="line"/>
      <point x="1573" y="838" type="line"/>
      <point x="1728" y="1258" type="line"/>
      <point x="1562" y="1285" type="line"/>
      <point x="1562" y="1500" type="line"/>
      <point x="2128" y="1500" type="line"/>
      <point x="2128" y="1286" type="line"/>
      <point x="1934" y="1248" type="line"/>
      <point x="1721" y="720" type="line"/>
      <point x="1439" y="-10" type="line"/>
      <point x="1316" y="-10" type="line"/>
      <point x="1068" y="735" type="line"/>
      <point x="888" y="1256" type="line"/>
    </contour>
    <contour>
      <point x="1914" y="484" type="line"/>
      <point x="1578" y="484" type="line"/>
      <point x="1578" y="508" type="line"/>
      <point x="1237" y="508" type="line"/>
      <point x="1151" y="728" type="line"/>
      <point x="1617" y="728" type="line"/>
      <point x="1617" y="745" type="line"/>
      <point x="1946" y="745" type="line"/>
    </contour>
    <contour>
      <point x="2002" y="818" type="line"/>
      <point x="1697" y="818" type="line"/>
      <point x="1697" y="838" type="line"/>
      <point x="1146" y="838" type="line"/>
      <point x="1065" y="1062" type="line"/>
      <point x="1737" y="1062" type="line"/>
      <point x="1737" y="1080" type="line"/>
      <point x="2050" y="1080" type="line"/>
    </contour>
    <contour>
      <point x="159" y="484" type="line"/>
      <point x="107" y="745" type="line"/>
      <point x="476" y="745" type="line"/>
      <point x="476" y="728" type="line"/>
      <point x="1151" y="728" type="line"/>
      <point x="1237" y="508" type="line"/>
      <point x="535" y="508" type="line"/>
      <point x="535" y="484" type="line"/>
    </contour>
    <contour>
      <point x="75" y="818" type="line"/>
      <point x="27" y="1080" type="line"/>
      <point x="356" y="1080" type="line"/>
      <point x="356" y="1062" type="line"/>
      <point x="1065" y="1062" type="line"/>
      <point x="1146" y="838" type="line"/>
      <point x="396" y="838" type="line"/>
      <point x="396" y="818" type="line"/>
    </contour>
  </outline>
</glyph>
<glyph name="euro" format="2">
  <advance width="1099"/>
  <unicode hex="20AC"/>
  <outline>
    <contour>
      <point x="204" y="746" type="qcurve" smooth="yes"/>
      <point x="204" y="1142"/>
      <point x="538" y="1518"/>
      <point x="742" y="1518" type="qcurve" smooth="yes"/>
      <point x="802" y="1518"/>
      <point x="962" y="1452"/>
      <point x="1068" y="1328" type="qcurve"/>
      <point x="964" y="1218" type="line"/>
      <point x="916" y="1260"/>
      <point x="846" y="1283"/>
      <point x="746" y="1283" type="qcurve" smooth="yes"/>
      <point x="566" y="1283"/>
      <point x="384" y="1040"/>
      <point x="386" y="807" type="qcurve" smooth="yes"/>
      <point x="386" y="512"/>
      <point x="580" y="192"/>
      <point x="766" y="192" type="qcurve" smooth="yes"/>
      <point x="846" y="192"/>
      <point x="950" y="222"/>
      <point x="1006" y="281" type="qcurve"/>
      <point x="1094" y="185" type="line"/>
      <point x="988" y="41"/>
      <point x="814" y="-28"/>
      <point x="774" y="-28" type="qcurve" smooth="yes"/>
      <point x="530" y="-28"/>
      <point x="204" y="363"/>
    </contour>
    <contour>
      <point x="52" y="832" type="line"/>
      <point x="68" y="1073" type="line"/>
      <point x="918" y="1073" type="line"/>
      <point x="946" y="832" type="line"/>
    </contour>
    <contour>
      <point x="64" y="450" type="line"/>
      <point x="46" y="691" type="line"/>
      <point x="936" y="691" type="line"/>
      <point x="908" y="450" type="line"/>
    </contour>
  </outline>
</glyph>
<glyph name="cedi" format="2">
  <advance width="1350"/>
  <unicode hex="20B5"/>
  <outline>
    <contour>
      <point x="114" y="696" type="qcurve" smooth="yes"/>
      <point x="114" y="1014"/>
      <point x="485" y="1452"/>
      <point x="779" y="1452" type="qcurve" smooth="yes"/>
      <point x="848" y="1452"/>
      <point x="1035" y="1404"/>
      <point x="1112" y="1368" type="qcurve"/>
      <point x="1151" y="1452" type="line"/>
      <point x="1237" y="1432" type="line"/>
      <point x="1211" y="916" type="line"/>
      <point x="1131" y="916" type="line"/>
      <point x="1085" y="1114" type="line" smooth="yes"/>
      <point x="1076" y="1151"/>
      <point x="924" y="1228"/>
      <point x="781" y="1228" type="qcurve" smooth="yes"/>
      <point x="549" y="1228"/>
      <point x="307" y="950"/>
      <point x="308" y="767" type="qcurve" smooth="yes"/>
      <point x="310" y="520"/>
      <point x="561" y="272"/>
      <point x="782" y="272" type="qcurve" smooth="yes"/>
      <point x="956" y="272"/>
      <point x="1163" y="355"/>
      <point x="1216" y="424" type="qcurve"/>
      <point x="1340" y="325" type="line"/>
      <point x="1221" y="165"/>
      <point x="920" y="17"/>
      <point x="787" y="17" type="qcurve" smooth="yes"/>
      <point x="471" y="17"/>
      <point x="114" y="411"/>
    </contour>
    <contour>
      <point x="420" y="-137" type="line"/>
      <point x="500" y="187" type="line"/>
      <point x="519" y="183" type="line"/>
      <point x="689" y="868" type="line"/>
      <point x="817" y="795" type="line"/>
      <point x="658" y="155" type="line"/>
      <point x="678" y="150" type="line"/>
      <point x="611" y="-124" type="line"/>
    </contour>
    <contour>
      <point x="839" y="1562" type="line"/>
      <point x="1029" y="1563" type="line"/>
      <point x="959" y="1282" type="line"/>
      <point x="939" y="1286" type="line"/>
      <point x="797" y="718" type="line"/>
      <point x="669" y="791" type="line"/>
      <point x="800" y="1317" type="line"/>
      <point x="779" y="1321" type="line"/>
    </contour>
  </outline>
</glyph>
<glyph name="ruble" format="2">
  <advance width="1201"/>
  <unicode hex="20BD"/>
  <outline>
    <contour>
      <point x="104" y="0" type="line"/>
      <point x="104" y="203" type="line"/>
      <point x="292" y="232" type="line"/>
      <point x="294" y="783" type="line"/>
      <point x="292" y="1253" type="line"/>
      <point x="104" y="1285" type="line"/>
      <point x="104" y="1500" type="line"/>
      <point x="690" y="1500" type="line" smooth="yes"/>
      <point x="908" y="1500"/>
      <point x="1190" y="1285"/>
      <point x="1190" y="1088" type="qcurve" smooth="yes"/>
      <point x="1190" y="865"/>
      <point x="898" y="582"/>
      <point x="650" y="582" type="qcurve" smooth="yes"/>
      <point x="548" y="582"/>
      <point x="264" y="624"/>
      <point x="112" y="660" type="qcurve"/>
      <point x="128" y="865" type="line"/>
      <point x="210" y="842"/>
      <point x="444" y="810"/>
      <point x="632" y="810" type="qcurve" smooth="yes"/>
      <point x="834" y="810"/>
      <point x="1004" y="968"/>
      <point x="1004" y="1064" type="qcurve" smooth="yes"/>
      <point x="1004" y="1148"/>
      <point x="836" y="1275"/>
      <point x="654" y="1275" type="qcurve" smooth="yes"/>
      <point x="482" y="1275" type="line"/>
      <point x="472" y="1269" type="line"/>
      <point x="470" y="784" type="line"/>
      <point x="472" y="229" type="line"/>
      <point x="680" y="204" type="line"/>
      <point x="680" y="0" type="line"/>
    </contour>
    <contour>
      <point x="92" y="324" type="line"/>
      <point x="66" y="526" type="line"/>
      <point x="884" y="526" type="line"/>
      <point x="866" y="287" type="line"/>
    </contour>
  </outline>
</glyph>
<glyph name="trademark" format="2">
  <advance width="2316"/>
  <unicode hex="2122"/>
  <outline>
    <contour>
      <point x="39" y="1103" type="line"/>
      <point x="39" y="1500" type="line"/>
      <point x="1047" y="1500" type="line"/>
      <point x="1047" y="1103" type="line"/>
      <point x="845" y="1103" type="line"/>
      <point x="811" y="1278" type="line"/>
      <point x="629" y="1278" type="line"/>
      <point x="623" y="1274" type="line"/>
      <point x="621" y="1048" type="line"/>
      <point x="621" y="926" type="line"/>
      <point x="751" y="893" type="line"/>
      <point x="751" y="697" type="line"/>
      <point x="335" y="697" type="line"/>
      <point x="335" y="893" type="line"/>
      <point x="465" y="926" type="line"/>
      <point x="465" y="1048" type="line"/>
      <point x="463" y="1277" type="line"/>
      <point x="463" y="1278" type="line"/>
      <point x="277" y="1278" type="line"/>
      <point x="241" y="1103" type="line"/>
    </contour>
    <contour>
      <point x="1081" y="699" type="line"/>
      <point x="1081" y="892" type="line"/>
      <point x="1199" y="924" type="line"/>
      <point x="1201" y="1038" type="line"/>
      <point x="1199" y="1262" type="line"/>
      <point x="1081" y="1293" type="line"/>
      <point x="1081" y="1500" type="line"/>
      <point x="1495" y="1500" type="line"/>
      <point x="1691" y="955" type="line"/>
      <point x="1883" y="1500" type="line"/>
      <point x="2265" y="1500" type="line"/>
      <point x="2265" y="1294" type="line"/>
      <point x="2157" y="1262" type="line"/>
      <point x="2155" y="1036" type="line"/>
      <point x="2157" y="922" type="line"/>
      <point x="2265" y="889" type="line"/>
      <point x="2265" y="697" type="line"/>
      <point x="1903" y="697" type="line"/>
      <point x="1903" y="889" type="line"/>
      <point x="2001" y="921" type="line"/>
      <point x="2003" y="1035" type="line"/>
      <point x="2001" y="1352" type="line"/>
      <point x="1759" y="690" type="line"/>
      <point x="1653" y="690" type="line"/>
      <point x="1403" y="1348" type="line"/>
      <point x="1401" y="1037" type="line"/>
      <point x="1403" y="924" type="line"/>
      <point x="1521" y="892" type="line"/>
      <point x="1521" y="699" type="line"/>
    </contour>
  </outline>
</glyph>
<glyph name="divisionslash" format="2">
  <advance width="703"/>
  <unicode hex="2215"/>
  <outline>
    <contour>
      <point x="-100" y="-127" type="line"/>
      <point x="537" y="1584" type="line"/>
      <point x="774" y="1496" type="line"/>
      <point x="140" y="-215" type="line"/>
    </contour>
  </outline>
</glyph>
<glyph name="greaterequal" format="2">
  <advance width="1024"/>
  <unicode hex="2265"/>
  <outline>
    <contour>
      <point x="90" y="-34" type="line"/>
      <point x="90" y="218" type="line"/>
      <point x="894" y="218" type="line"/>
      <point x="894" y="-34" type="line"/>
    </contour>
    <contour>
      <point x="825" y="684" type="qcurve"/>
      <point x="825" y="684"/>
      <point x="391" y="298"/>
      <point x="324" y="249" type="qcurve" smooth="yes"/>
      <point x="258" y="201"/>
      <point x="106" y="405"/>
      <point x="173" y="446" type="qcurve" smooth="yes"/>
      <point x="308" y="528"/>
      <point x="534" y="664"/>
      <point x="599" y="687" type="qcurve"/>
      <point x="540" y="710"/>
      <point x="295" y="860"/>
      <point x="170" y="953" type="qcurve"/>
      <point x="112" y="1006"/>
      <point x="265" y="1190"/>
      <point x="332" y="1142" type="qcurve" smooth="yes"/>
      <point x="398" y="1094"/>
      <point x="825" y="684"/>
    </contour>
  </outline>
</glyph>
<glyph name="fi" format="2">
  <advance width="1267"/>
  <unicode hex="FB01"/>
  <outline>
    <contour>
      <point x="54" y="0" type="line"/>
      <point x="54" y="183" type="line"/>
      <point x="222" y="215" type="line"/>
      <point x="224" y="533" type="line"/>
      <point x="221" y="757" type="line"/>
      <point x="80" y="768" type="line"/>
      <point x="58" y="966" type="line"/>
      <point x="223" y="984" type="line"/>
      <point x="226" y="1239" type="line" smooth="yes"/>
      <point x="228" y="1392"/>
      <point x="405" y="1517"/>
      <point x="504" y="1517" type="qcurve" smooth="yes"/>
      <point x="563" y="1517"/>
      <point x="659" y="1495"/>
      <point x="708" y="1474" type="qcurve" smooth="yes"/>
      <point x="729" y="1465" type="line"/>
      <point x="699" y="1265" type="line"/>
      <point x="677" y="1272" type="line" smooth="yes"/>
      <point x="648" y="1281"/>
      <point x="558" y="1298"/>
      <point x="520" y="1298" type="qcurve" smooth="yes"/>
      <point x="444" y="1298"/>
      <point x="382" y="1245"/>
      <point x="383" y="1191" type="qcurve" smooth="yes"/>
      <point x="385" y="985" type="line"/>
      <point x="978" y="1000" type="line"/>
      <point x="1026" y="1000" type="line"/>
      <point x="1049" y="960" type="line"/>
      <point x="1040" y="524" type="line"/>
      <point x="1042" y="215" type="line"/>
      <point x="1210" y="183" type="line"/>
      <point x="1210" y="0" type="line"/>
      <point x="714" y="0" type="line"/>
      <point x="714" y="183" type="line"/>
      <point x="872" y="215" type="line"/>
      <point x="874" y="521" type="line"/>
      <point x="869" y="772" type="line"/>
      <point x="861" y="777" type="line"/>
      <point x="387" y="767" type="line"/>
      <point x="387" y="542" type="line"/>
      <point x="400" y="215" type="line"/>
      <point x="564" y="183" type="line"/>
      <point x="564" y="0" type="line"/>
    </contour>
    <contour>
      <point x="826.0" y="1337" type="qcurve" smooth="yes"/>
      <point x="826.0" y="1405"/>
      <point x="892.0" y="1459.0"/>
      <point x="952.0" y="1459.0" type="qcurve" smooth="yes"/>
      <point x="1012" y="1459"/>
      <point x="1078.0" y="1402"/>
      <point x="1078.0" y="1337" type="qcurve" smooth="yes"/>
      <point x="1078.0" y="1269"/>
      <point x="1006" y="1214"/>
      <point x="952.0" y="1214" type="qcurve" smooth="yes"/>
      <point x="898.0" y="1214.0"/>
      <point x="826.0" y="1271"/>
    </contour>
  </outline>
</glyph>
<glyph name="fl" format="2">
  <advance width="1260"/>
  <unicode hex="FB02"/>
  <outline>
    <contour>
      <point x="53.0" y="0" type="line"/>
      <point x="53.0" y="183" type="line"/>
      <point x="221.0" y="215" type="line"/>
      <point x="223.0" y="533" type="line"/>
      <point x="220.0" y="756" type="line"/>
      <point x="79.0" y="767" type="line"/>
      <point x="57.0" y="964" type="line"/>
      <point x="222.0" y="982" type="line"/>
      <point x="226.0" y="1298" type="line" smooth="yes"/>
      <point x="227" y="1403"/>
      <point x="359" y="1517"/>
      <point x="459.0" y="1517" type="qcurve" smooth="yes"/>
      <point x="494" y="1517"/>
      <point x="566" y="1511"/>
      <point x="598.0" y="1504" type="qcurve" smooth="yes"/>
      <point x="669.0" y="1488" type="line"/>
      <point x="976.0" y="1534" type="line"/>
      <point x="1012.0" y="1531" type="line"/>
      <point x="1035.0" y="1499" type="line"/>
      <point x="1033.0" y="559" type="line"/>
      <point x="1035.0" y="215" type="line"/>
      <point x="1193.0" y="183" type="line"/>
      <point x="1193.0" y="0" type="line"/>
      <point x="720.0" y="0" type="line"/>
      <point x="720.0" y="182" type="line"/>
      <point x="865.0" y="215" type="line"/>
      <point x="867.0" y="557" type="line"/>
      <point x="865.0" y="1273" type="line"/>
      <point x="611.0" y="1295" type="line" smooth="yes"/>
      <point x="583" y="1297"/>
      <point x="523" y="1298.0"/>
      <point x="497" y="1298.0" type="qcurve" smooth="yes"/>
      <point x="434" y="1298"/>
      <point x="383" y="1239"/>
      <point x="383" y="1204" type="qcurve" smooth="yes"/>
      <point x="384.0" y="985" type="line"/>
      <point x="660.0" y="985" type="line"/>
      <point x="660.0" y="776" type="line"/>
      <point x="385.0" y="766" type="line"/>
      <point x="386.0" y="581" type="line"/>
      <point x="399.0" y="215" type="line"/>
      <point x="569.0" y="183" type="line"/>
      <point x="569.0" y="0" type="line"/>
    </contour>
  </outline>
</glyph>
<glyph name="diagonalbarl" format="2">
  <advance width="844"/>
  <outline>
    <contour>
      <point x="354" y="825" type="line"/>
      <point x="693" y="1097" type="line"/>
      <point x="845" y="874" type="line"/>
      <point x="501" y="627" type="line"/>
      <point x="176" y="372" type="line"/>
      <point x="20" y="598" type="line"/>
    </contour>
  </outline>
</glyph>
<glyph name="eight.tnum" format="2">
  <advance width="1000"/>
  <outline>
    <contour>
      <point x="33" y="418.0" type="qcurve" smooth="yes"/>
      <point x="33" y="608.0"/>
      <point x="262" y="840.0"/>
      <point x="379" y="887.0" type="qcurve"/>
      <point x="516" y="777.0" type="line"/>
      <point x="348" y="720.0"/>
      <point x="168" y="562.0"/>
      <point x="168" y="445.0" type="qcurve" smooth="yes"/>
      <point x="168" y="343.0"/>
      <point x="329" y="187.0"/>
      <point x="505" y="187.0" type="qcurve" smooth="yes"/>
      <point x="654" y="187.0"/>
      <point x="808" y="325.0"/>
      <point x="808" y="416.0" type="qcurve" smooth="yes"/>
      <point x="808" y="507.0"/>
      <point x="662" y="647.0"/>
      <point x="481" y="733.0" type="qcurve" smooth="yes"/>
      <point x="282" y="827.0"/>
      <point x="118" y="1015.0"/>
      <point x="118" y="1165.0" type="qcurve" smooth="yes"/>
      <point x="118" y="1328.0"/>
      <point x="369" y="1530.0"/>
      <point x="518" y="1530.0" type="qcurve" smooth="yes"/>
      <point x="670" y="1530.0"/>
      <point x="875" y="1353.0"/>
      <point x="875" y="1195.0" type="qcurve" smooth="yes"/>
      <point x="875" y="1025.0"/>
      <point x="710" y="823.0"/>
      <point x="600" y="762.0" type="qcurve"/>
      <point x="454" y="862.0" type="line"/>
      <point x="611" y="935.0"/>
      <point x="739" y="1079.0"/>
      <point x="739" y="1156.0" type="qcurve" smooth="yes"/>
      <point x="739" y="1224.0"/>
      <point x="641" y="1320.0"/>
      <point x="513" y="1320.0" type="qcurve" smooth="yes"/>
      <point x="385" y="1320.0"/>
      <point x="263" y="1225.0"/>
      <point x="263" y="1157.0" type="qcurve" smooth="yes"/>
      <point x="263" y="1094.0"/>
      <point x="383" y="974.0"/>
      <point x="579" y="881.0" type="qcurve" smooth="yes"/>
      <point x="768" y="792.0"/>
      <point x="968" y="586.0"/>
      <point x="968" y="416.0" type="qcurve" smooth="yes"/>
      <point x="968" y="232.0"/>
      <point x="706" y="-22.0"/>
      <point x="506" y="-22.0" type="qcurve" smooth="yes"/>
      <point x="283" y="-22.0"/>
      <point x="33" y="227.0"/>
    </contour>
  </outline>
</glyph>
<glyph name="engtail" format="2">
  <advance width="629"/>
  <outline>
    <contour>
      <point x="419" y="190" type="line"/>
      <point x="529" y="190" type="line"/>
      <point x="529" y="-195" type="line" smooth="yes"/>
      <point x="529" y="-306"/>
      <point x="389" y="-443"/>
      <point x="299" y="-443" type="qcurve" smooth="yes"/>
      <point x="195.0" y="-443"/>
      <point x="29.0" y="-353.0"/>
      <point x="-8" y="-306" type="qcurve"/>
      <point x="102" y="-167" type="line"/>
      <point x="133" y="-199"/>
      <point x="195" y="-227"/>
      <point x="240" y="-227.0" type="qcurve" smooth="yes"/>
      <point x="298" y="-227.0"/>
      <point x="354" y="-146"/>
      <point x="354" y="-67" type="qcurve" smooth="yes"/>
      <point x="354" y="12"/>
      <point x="354" y="150"/>
      <point x="354" y="150" type="qcurve"/>
    </contour>
  </outline>
</glyph>
<glyph name="horizontalbarH" format="2">
  <advance width="1366"/>
  <outline>
    <contour>
      <point x="1356" y="945" type="line"/>
      <point x="1165" y="945" type="line"/>
      <point x="1165" y="962" type="line"/>
      <point x="722" y="962" type="line"/>
      <point x="722" y="1164" type="line"/>
      <point x="1165" y="1164" type="line"/>
      <point x="1165" y="1182" type="line"/>
      <point x="1366" y="1182" type="line"/>
    </contour>
    <contour>
      <point x="9" y="946" type="line"/>
      <point x="0" y="1182" type="line"/>
      <point x="222" y="1182" type="line"/>
      <point x="222" y="1164" type="line"/>
      <point x="722" y="1164" type="line"/>
      <point x="722" y="962" type="line"/>
      <point x="222" y="962" type="line"/>
      <point x="222" y="946" type="line"/>
    </contour>
  </outline>
</glyph>
<glyph name="nine.tnum" format="2">
  <advance width="1000"/>
  <outline>
    <contour>
      <point x="953" y="872.0" type="qcurve" smooth="yes"/>
      <point x="953" y="547.0"/>
      <point x="571" y="30.0"/>
      <point x="234" y="-87.0" type="qcurve"/>
      <point x="160" y="137.0" type="line"/>
      <point x="453" y="231.0"/>
      <point x="768" y="578.0"/>
      <point x="768" y="874.0" type="qcurve" smooth="yes"/>
      <point x="768" y="1077.0"/>
      <point x="611" y="1308.0"/>
      <point x="465" y="1308.0" type="qcurve" smooth="yes"/>
      <point x="327" y="1308.0"/>
      <point x="203" y="1140.0"/>
      <point x="203" y="1022.0" type="qcurve" smooth="yes"/>
      <point x="203" y="904.0"/>
      <point x="334" y="764.0"/>
      <point x="455" y="764.0" type="qcurve" smooth="yes"/>
      <point x="514" y="764.0"/>
      <point x="597" y="786.0"/>
      <point x="617" y="795.0" type="qcurve"/>
      <point x="687" y="660.0" type="line"/>
      <point x="642" y="607.0"/>
      <point x="505" y="533.0"/>
      <point x="408" y="533.0" type="qcurve" smooth="yes"/>
      <point x="259" y="533.0"/>
      <point x="21" y="771.0"/>
      <point x="21" y="999.0" type="qcurve" smooth="yes"/>
      <point x="21" y="1240.0"/>
      <point x="265" y="1519.0"/>
      <point x="451" y="1519.0" type="qcurve" smooth="yes"/>
      <point x="673" y="1519.0"/>
      <point x="953" y="1162.0"/>
    </contour>
  </outline>
</glyph>
